<svg width="848" height="407" viewBox="0 0 848 407" fill="none" xmlns="http://www.w3.org/2000/svg">
<g clip-path="url(#clip0_201_50)">
<g clip-path="url(#clip1_201_50)">
<path d="M37.936 277.509V295.109H45.4611C46.8419 295.109 48.0896 294.892 49.2098 294.482C50.33 294.066 51.2893 293.472 52.0934 292.701C52.8975 291.924 53.513 291.003 53.9456 289.921C54.3781 288.845 54.5944 287.641 54.5999 286.309C54.5999 284.977 54.3781 283.774 53.9456 282.697C53.513 281.621 52.8975 280.694 52.0934 279.917C51.2949 279.146 50.33 278.553 49.2098 278.136C48.0896 277.72 46.8419 277.515 45.4611 277.509H37.936ZM45.3724 281.393C46.1875 281.393 46.9029 281.521 47.5074 281.759C48.1118 281.998 48.6109 282.331 49.0157 282.775C49.415 283.213 49.7144 283.729 49.9141 284.328C50.1137 284.928 50.2135 285.588 50.2135 286.309C50.2135 287.03 50.1137 287.68 49.9141 288.273C49.72 288.872 49.4205 289.394 49.0157 289.832C48.6109 290.271 48.1118 290.609 47.5074 290.853C46.9029 291.097 46.1875 291.219 45.3724 291.219H42.1283V281.388H45.3724V281.393ZM57.0621 277.509V295.109H61.26V288.523H61.8755L66.5115 295.109H71.5134L66.4616 288.395C67.5152 288.223 68.4025 287.901 69.14 287.43C69.8665 286.958 70.421 286.359 70.8036 285.627C71.1863 284.9 71.3748 284.073 71.3804 283.135C71.3804 281.976 71.1253 280.972 70.6151 280.134C70.1105 279.29 69.3618 278.647 68.3747 278.192C67.3877 277.737 66.1677 277.504 64.7203 277.498H57.0676L57.0621 277.509ZM64.6593 281.321C65.1584 281.321 65.5854 281.382 65.9514 281.515C66.3174 281.643 66.5947 281.848 66.7998 282.115C66.9995 282.386 67.0993 282.725 67.0993 283.141C67.0993 283.563 66.9995 283.907 66.7998 284.179C66.6058 284.45 66.3285 284.656 65.9625 284.783C65.5965 284.916 65.1639 284.983 64.6593 284.983H61.2544V281.31H64.6593V281.321ZM78.179 277.509H73.9812V295.109H78.179V277.509ZM97.9318 277.509H93.562L88.9649 290.787L84.3899 277.509H79.9314L86.4417 295.109H91.4437L97.9373 277.509H97.9318ZM103.876 277.509H99.6786V295.109H103.876V277.509ZM123.313 277.509H119.104V288.245L111.086 277.509H107.065V295.109H111.263V284.373L119.282 295.109H123.313V277.509ZM135.136 277.182C133.761 277.188 132.502 277.41 131.36 277.859C130.223 278.303 129.23 278.93 128.398 279.745C127.566 280.561 126.918 281.521 126.463 282.631C126.008 283.74 125.775 284.966 125.77 286.309C125.77 287.413 125.931 288.429 126.236 289.366C126.546 290.298 126.979 291.142 127.544 291.891C128.11 292.634 128.775 293.272 129.552 293.799C130.328 294.321 131.182 294.726 132.114 295.009C133.051 295.286 134.044 295.425 135.097 295.425C136.007 295.425 136.883 295.297 137.726 295.037C138.569 294.781 139.345 294.399 140.06 293.899C140.776 293.4 141.402 292.79 141.935 292.063C142.473 291.341 142.883 290.515 143.182 289.577C143.482 288.645 143.637 287.613 143.637 286.487C143.637 286.276 143.626 286.059 143.615 285.843C143.604 285.627 143.576 285.399 143.548 285.166H135.103V288.412H139.389C139.145 289.449 138.657 290.243 137.92 290.781C137.182 291.319 136.19 291.591 134.942 291.597C134.282 291.597 133.666 291.48 133.084 291.247C132.502 291.014 131.986 290.676 131.537 290.226C131.088 289.771 130.738 289.222 130.483 288.567C130.228 287.913 130.101 287.164 130.095 286.315C130.095 285.543 130.217 284.844 130.456 284.212C130.689 283.579 131.027 283.036 131.459 282.575C131.897 282.115 132.402 281.765 132.99 281.51C133.583 281.26 134.227 281.138 134.931 281.133C135.746 281.133 136.467 281.277 137.093 281.554C137.72 281.832 138.247 282.203 138.691 282.681L141.68 279.74C140.909 278.935 139.977 278.308 138.879 277.865C137.781 277.421 136.533 277.193 135.136 277.188V277.182ZM151.744 277.509V295.109H159.27C160.65 295.109 161.898 294.892 163.018 294.482C164.138 294.066 165.098 293.472 165.902 292.701C166.706 291.924 167.322 291.003 167.754 289.921C168.187 288.845 168.403 287.641 168.408 286.309C168.408 284.977 168.187 283.774 167.754 282.697C167.322 281.621 166.706 280.694 165.902 279.917C165.103 279.146 164.138 278.553 163.018 278.136C161.898 277.72 160.65 277.515 159.27 277.509H151.744ZM159.181 281.393C159.996 281.393 160.711 281.521 161.316 281.759C161.92 281.998 162.419 282.331 162.824 282.775C163.223 283.213 163.523 283.729 163.723 284.328C163.922 284.928 164.022 285.588 164.022 286.309C164.022 287.03 163.922 287.68 163.723 288.273C163.528 288.872 163.229 289.394 162.824 289.832C162.419 290.271 161.92 290.609 161.316 290.853C160.706 291.097 159.996 291.219 159.181 291.219H155.937V281.388H159.181V281.393ZM175.063 277.509H170.865V295.109H175.063V277.509ZM186.886 277.182C185.51 277.188 184.252 277.41 183.115 277.859C181.978 278.303 180.985 278.93 180.154 279.745C179.322 280.561 178.673 281.521 178.218 282.631C177.764 283.74 177.531 284.966 177.525 286.309C177.525 287.413 177.686 288.429 177.991 289.366C178.301 290.298 178.734 291.142 179.3 291.891C179.865 292.634 180.531 293.272 181.307 293.799C182.083 294.321 182.937 294.726 183.869 295.009C184.806 295.286 185.799 295.425 186.852 295.425C187.762 295.425 188.638 295.297 189.475 295.037C190.318 294.781 191.095 294.399 191.81 293.899C192.525 293.4 193.152 292.79 193.684 292.063C194.222 291.341 194.633 290.515 194.932 289.577C195.232 288.645 195.387 287.613 195.387 286.487C195.387 286.276 195.376 286.059 195.365 285.843C195.354 285.627 195.326 285.399 195.298 285.166H186.852V288.412H191.139C190.895 289.449 190.407 290.243 189.67 290.781C188.932 291.319 187.939 291.591 186.692 291.597C186.032 291.597 185.416 291.48 184.834 291.247C184.252 291.014 183.736 290.676 183.287 290.226C182.838 289.771 182.488 289.222 182.233 288.567C181.978 287.913 181.851 287.164 181.845 286.315C181.845 285.543 181.967 284.844 182.205 284.212C182.438 283.579 182.777 283.036 183.209 282.575C183.647 282.115 184.152 281.765 184.74 281.51C185.333 281.26 185.976 281.138 186.681 281.133C187.496 281.133 188.217 281.277 188.843 281.554C189.47 281.832 189.997 282.203 190.44 282.681L193.429 279.74C192.659 278.935 191.727 278.308 190.629 277.865C189.531 277.421 188.283 277.193 186.886 277.188V277.182ZM202.052 277.509H197.855V295.109H202.052V277.509ZM218.578 277.509H203.966V281.404H209.178V295.109H213.376V281.404H218.578V277.509ZM228.914 277.509H223.901L217.153 295.109H221.539L222.87 291.414H229.857L231.188 295.109H235.663L228.914 277.509ZM226.364 281.682L228.499 287.613H224.229L226.364 281.682ZM250.453 291.214H241.608V277.509H237.41V295.109H250.453V291.214ZM270.766 277.509H256.153V281.404H261.366V295.109H265.564V281.404H270.766V277.509ZM272.679 277.509V295.109H276.877V288.523H277.492L282.128 295.109H287.13L282.078 288.395C283.132 288.223 284.019 287.901 284.757 287.43C285.483 286.958 286.038 286.359 286.42 285.627C286.803 284.9 286.992 284.073 286.997 283.135C286.997 281.976 286.742 280.972 286.232 280.134C285.727 279.29 284.979 278.647 283.991 278.192C283.004 277.737 281.784 277.504 280.337 277.498H272.684L272.679 277.509ZM280.282 281.321C280.781 281.321 281.208 281.382 281.574 281.515C281.94 281.643 282.217 281.848 282.422 282.115C282.622 282.386 282.722 282.725 282.722 283.141C282.722 283.563 282.622 283.907 282.422 284.179C282.228 284.45 281.951 284.656 281.585 284.783C281.219 284.916 280.786 284.983 280.282 284.983H276.877V281.31H280.282V281.321ZM299.652 277.509H294.639L287.89 295.109H292.276L293.607 291.414H300.594L301.925 295.109H306.4L299.652 277.509ZM297.101 281.682L299.236 287.613H294.966L297.101 281.682ZM324.395 277.509H320.186V288.245L312.173 277.509H308.153V295.109H312.351V284.373L320.369 295.109H324.401V277.509H324.395ZM341.819 279.057C340.937 278.569 340.105 278.192 339.324 277.92C338.542 277.648 337.776 277.46 337.022 277.349C336.274 277.238 335.508 277.188 334.721 277.193C333.689 277.193 332.747 277.326 331.887 277.582C331.028 277.842 330.285 278.214 329.658 278.702C329.026 279.191 328.538 279.773 328.188 280.461C327.839 281.144 327.651 281.915 327.628 282.775C327.612 283.829 327.811 284.717 328.227 285.449C328.643 286.176 329.264 286.764 330.09 287.208C330.917 287.646 331.932 287.962 333.146 288.146L334.028 288.284C334.793 288.395 335.436 288.517 335.952 288.65C336.473 288.778 336.856 288.95 337.122 289.161C337.383 289.372 337.51 289.649 337.51 289.993C337.51 290.359 337.383 290.659 337.139 290.903C336.895 291.147 336.568 291.325 336.152 291.447C335.73 291.569 335.253 291.624 334.721 291.624C333.895 291.624 333.14 291.53 332.447 291.347C331.754 291.169 331.127 290.942 330.562 290.665C329.996 290.382 329.492 290.087 329.042 289.777L326.946 293.195C327.601 293.683 328.338 294.093 329.164 294.426C329.996 294.759 330.872 295.009 331.81 295.181C332.741 295.347 333.701 295.431 334.682 295.431C335.442 295.431 336.179 295.358 336.9 295.22C337.616 295.075 338.287 294.848 338.913 294.548C339.534 294.249 340.083 293.866 340.549 293.394C341.02 292.923 341.392 292.368 341.653 291.724C341.919 291.081 342.057 290.337 342.057 289.499C342.057 288.54 341.825 287.724 341.375 287.041C340.921 286.359 340.283 285.799 339.451 285.371C338.625 284.944 337.632 284.634 336.49 284.439L335.763 284.312C335.275 284.228 334.81 284.145 334.377 284.056C333.939 283.968 333.556 283.868 333.224 283.746C332.891 283.624 332.625 283.468 332.436 283.291C332.242 283.108 332.148 282.875 332.142 282.603C332.142 282.253 332.27 281.959 332.503 281.726C332.741 281.493 333.068 281.316 333.479 281.199C333.895 281.077 334.372 281.016 334.909 281.016C335.597 281.016 336.246 281.094 336.85 281.232C337.46 281.371 338.02 281.554 338.536 281.776C339.057 282.004 339.523 282.242 339.945 282.497L341.819 279.052V279.057ZM357.302 284.589H348.806V281.293H357.901V277.509H344.608V295.109H348.806V288.384H357.302V284.589ZM368.87 277.182C367.511 277.188 366.263 277.415 365.132 277.87C364.006 278.325 363.025 278.958 362.198 279.779C361.372 280.594 360.734 281.56 360.285 282.669C359.831 283.774 359.603 284.989 359.598 286.309C359.598 287.63 359.831 288.845 360.285 289.949C360.734 291.058 361.372 292.024 362.198 292.839C363.025 293.661 364.006 294.293 365.132 294.748C366.263 295.203 367.511 295.425 368.87 295.436C370.228 295.431 371.481 295.203 372.607 294.748C373.733 294.293 374.714 293.661 375.541 292.839C376.367 292.024 377.005 291.058 377.454 289.949C377.909 288.845 378.13 287.63 378.141 286.309C378.136 284.989 377.909 283.774 377.454 282.669C376.999 281.56 376.367 280.594 375.541 279.779C374.714 278.958 373.733 278.325 372.607 277.87C371.476 277.415 370.228 277.193 368.87 277.182ZM368.87 281.205C369.59 281.205 370.25 281.332 370.844 281.576C371.443 281.826 371.958 282.17 372.396 282.625C372.835 283.08 373.167 283.613 373.406 284.24C373.644 284.861 373.766 285.549 373.772 286.309C373.772 287.069 373.644 287.757 373.406 288.379C373.167 289.006 372.835 289.538 372.396 289.993C371.958 290.448 371.443 290.792 370.844 291.042C370.25 291.291 369.59 291.408 368.87 291.414C368.149 291.414 367.494 291.286 366.895 291.042C366.296 290.792 365.781 290.448 365.343 289.993C364.905 289.538 364.572 289.006 364.333 288.379C364.095 287.757 363.973 287.069 363.967 286.309C363.967 285.549 364.095 284.861 364.333 284.24C364.572 283.613 364.905 283.08 365.343 282.625C365.781 282.17 366.296 281.826 366.895 281.576C367.489 281.327 368.149 281.21 368.87 281.205ZM380.604 277.509V295.109H384.802V288.523H385.417L390.053 295.109H395.055L390.003 288.395C391.057 288.223 391.944 287.901 392.682 287.43C393.408 286.958 393.963 286.359 394.345 285.627C394.728 284.9 394.916 284.073 394.916 283.135C394.916 281.976 394.661 280.972 394.157 280.134C393.652 279.29 392.903 278.647 391.916 278.192C390.929 277.737 389.709 277.504 388.262 277.498H380.609L380.604 277.509ZM388.206 281.321C388.705 281.321 389.132 281.382 389.498 281.515C389.864 281.643 390.142 281.848 390.347 282.115C390.547 282.386 390.646 282.725 390.646 283.141C390.646 283.563 390.547 283.907 390.347 284.179C390.153 284.45 389.876 284.656 389.51 284.783C389.144 284.916 388.711 284.983 388.206 284.983H384.802V281.31H388.206V281.321ZM417.42 277.509H411.464L407.482 288.684L403.473 277.509H397.528V295.109H401.726V283.102L405.242 293.45H409.7L413.216 283.069V295.109H417.414V277.509H417.42ZM430.928 277.509H425.915L419.166 295.109H423.553L424.884 291.414H431.871L433.202 295.109H437.677L430.928 277.509ZM428.377 281.682L430.512 287.613H426.242L428.377 281.682ZM450.864 277.509H436.252V281.404H441.465V295.109H445.662V281.404H450.864V277.509ZM456.975 277.509H452.777V295.109H456.975V277.509ZM468.709 277.182C467.351 277.188 466.103 277.415 464.972 277.87C463.846 278.325 462.864 278.958 462.038 279.779C461.212 280.594 460.574 281.56 460.125 282.669C459.67 283.774 459.443 284.989 459.437 286.309C459.437 287.63 459.67 288.845 460.125 289.949C460.574 291.058 461.212 292.024 462.038 292.839C462.864 293.661 463.846 294.293 464.972 294.748C466.103 295.203 467.351 295.425 468.709 295.436C470.068 295.431 471.321 295.203 472.447 294.748C473.572 294.293 474.554 293.661 475.38 292.839C476.207 292.024 476.844 291.058 477.293 289.949C477.748 288.845 477.97 287.63 477.981 286.309C477.976 284.989 477.748 283.774 477.293 282.669C476.839 281.56 476.207 280.594 475.38 279.779C474.554 278.958 473.572 278.325 472.447 277.87C471.315 277.415 470.068 277.193 468.709 277.182ZM468.709 281.205C469.43 281.205 470.09 281.332 470.683 281.576C471.282 281.826 471.798 282.17 472.236 282.625C472.674 283.08 473.007 283.613 473.245 284.24C473.484 284.861 473.606 285.549 473.611 286.309C473.611 287.069 473.484 287.757 473.245 288.379C473.007 289.006 472.674 289.538 472.236 289.993C471.798 290.448 471.282 290.792 470.683 291.042C470.09 291.291 469.43 291.408 468.709 291.414C467.988 291.414 467.334 291.286 466.735 291.042C466.136 290.792 465.62 290.448 465.182 289.993C464.744 289.538 464.411 289.006 464.173 288.379C463.935 287.757 463.813 287.069 463.807 286.309C463.807 285.549 463.935 284.861 464.173 284.24C464.411 283.613 464.75 283.08 465.182 282.625C465.62 282.17 466.136 281.826 466.735 281.576C467.328 281.327 467.988 281.21 468.709 281.205ZM496.691 277.509H492.482V288.245L484.464 277.509H480.443V295.109H484.641V284.373L492.66 295.109H496.691V277.509Z" fill="#12274B"/>
<path fill-rule="evenodd" clip-rule="evenodd" d="M201.897 225.022C209.145 225.022 215.017 230.898 215.017 238.15C215.017 245.401 209.145 251.277 201.897 251.277C194.649 251.277 188.776 245.401 188.776 238.15C188.776 230.898 194.649 225.022 201.897 225.022ZM244.358 191.327H221.871V173.195H286.42V191.327H263.933V249.823H244.358V191.327ZM309.994 231.691H344.647V249.823H290.418V173.195H344.647V191.327H309.994V202.973H341.869V221.105H309.994V231.691ZM408.17 219.646H428.937C427.989 224.212 426.336 228.401 423.957 232.241C421.601 236.08 418.645 239.409 415.14 242.255C411.613 245.102 407.643 247.304 403.256 248.869C398.848 250.456 394.129 251.249 389.127 251.271C383.393 251.227 378.08 250.212 373.189 248.181C368.27 246.15 363.973 243.332 360.29 239.709C356.608 236.091 353.719 231.88 351.673 227.092C349.599 222.304 348.562 217.121 348.523 211.562C348.567 206.003 349.604 200.82 351.673 196.032C353.725 191.244 356.608 187.033 360.29 183.415C363.973 179.798 368.27 176.974 373.189 174.943C378.086 172.912 383.398 171.897 389.127 171.853C394.129 171.875 398.848 172.668 403.256 174.233C407.643 175.775 411.613 177.984 415.14 180.808C418.645 183.654 421.601 186.983 423.957 190.845C426.336 194.684 427.994 198.895 428.937 203.484H408.17C407.133 200.815 405.68 198.479 403.827 196.448C401.953 194.44 399.774 192.853 397.256 191.727C394.766 190.578 392.055 190.007 389.121 189.985C386.254 190.007 383.587 190.556 381.119 191.682C378.651 192.787 376.466 194.329 374.592 196.293C372.74 198.279 371.265 200.549 370.228 203.151C369.169 205.753 368.642 208.555 368.62 211.556C368.642 214.558 369.169 217.354 370.228 219.962C371.265 222.542 372.74 224.839 374.592 226.82C376.466 228.784 378.646 230.326 381.119 231.431C383.587 232.557 386.254 233.106 389.121 233.128C392.055 233.106 394.766 232.512 397.256 231.364C399.768 230.215 401.953 228.629 403.827 226.598C405.68 224.567 407.133 222.254 408.17 219.629V219.646ZM477.11 249.823V224.151H452.111V249.823H432.536V173.195H452.111V205.881H477.11V173.195H496.685V249.823H477.11ZM181.983 202.674C181.983 233.672 159.02 251.282 133.311 251.282C101.935 251.282 102.329 219.546 105.928 206.818C108.235 221.499 119.719 231.431 133.311 231.431C148.567 231.431 160.933 218.409 160.933 202.674C160.933 186.939 152.709 176.597 141.396 172.668C139.905 173.035 138.363 173.301 136.794 173.467C111.95 177.601 94.7096 198.607 90.1901 251.282H67.1933L30.5215 166.493C26.0186 154.392 18.3881 144.644 8.43964 136.627C28.5251 136.627 40.4755 136.332 52.6033 164.368L71.2636 207.517L70.2266 241.345L74.4689 214.913C81.3452 187.455 94.8482 158.603 130.81 153.349C113.115 155.829 98.1034 153.643 98.1034 136.887C98.0979 116.586 113.863 100.135 133.311 100.135C152.759 100.135 168.519 116.586 168.519 136.887C168.519 146.647 164.881 155.513 158.937 162.088C154.85 165.561 150.269 168.79 144.435 171.387C150.053 170.671 155.837 167.569 161.676 163.791C173.016 171.559 181.978 186.961 181.978 202.674H181.983ZM147.607 144.111C148.622 141.931 149.188 139.478 149.188 136.887C149.188 127.727 142.079 120.303 133.306 120.303C124.533 120.303 117.413 127.733 117.413 136.887C117.413 145.254 123.352 152.178 131.071 153.31C135.967 152.45 142.234 152.772 147.602 144.111H147.607Z" fill="url(#paint0_linear_201_50)"/>
</g>
<g opacity="0.4" clip-path="url(#clip2_201_50)">
<path fill-rule="evenodd" clip-rule="evenodd" d="M887.003 166.595C870.615 177.206 854.363 185.895 838.605 187.911C854.993 180.611 867.842 171.566 879.303 161.801C896.004 143.352 906.211 118.496 906.211 91.0908C906.211 34.1719 861.975 -12 807.396 -12C752.816 -12 708.626 34.1719 708.626 91.0908C708.626 138.114 750.712 144.249 800.368 137.263C699.448 151.994 661.57 232.964 642.274 309.989L630.364 384.15L633.319 289.214L580.933 168.212C546.904 89.5666 513.37 90.3751 457 90.3751C484.937 112.856 506.338 140.218 518.967 174.162L621.855 412H686.417C699.088 264.262 747.487 205.331 817.201 193.729C821.591 193.238 825.888 192.522 830.096 191.489C861.839 202.507 884.899 231.525 884.899 275.635C884.899 319.745 850.201 356.335 807.396 356.335C769.251 356.335 737.055 328.481 730.565 287.28C720.446 322.972 719.371 412 807.396 412C879.527 412 944 362.606 944 275.635C944 231.572 918.84 188.355 887.003 166.591V166.595ZM801.13 137.17C779.458 133.99 762.803 114.6 762.803 91.0869C762.803 65.4264 782.773 44.5591 807.396 44.5591C832.018 44.5591 851.992 65.4264 851.992 91.0869C851.992 98.387 850.379 105.238 847.513 111.374C832.471 135.646 814.872 134.748 801.126 137.166L801.13 137.17Z" fill="url(#paint1_linear_201_50)"/>
</g>
<g clip-path="url(#clip3_201_50)">
<path d="M532 127H631V226.062H532V127Z" fill="#E60000"/>
<path d="M532 226.062H631V268.931L581.789 295L532 268.931" fill="#002171"/>
<path d="M542.923 263.138V257.055H544.768L545.872 261.201L546.958 257.055H548.803V263.138H547.663V258.35L546.451 263.138H545.275L544.072 258.35V263.138H542.923ZM550.884 260.079L549.825 259.889C549.938 259.461 550.142 259.144 550.431 258.938C550.725 258.734 551.16 258.63 551.734 258.63C552.252 258.63 552.639 258.694 552.892 258.82C553.145 258.943 553.322 259.099 553.426 259.291C553.534 259.479 553.588 259.825 553.588 260.332L553.57 261.69C553.57 262.077 553.588 262.364 553.625 262.55C553.665 262.731 553.738 262.928 553.842 263.138H552.684C552.652 263.061 552.616 262.946 552.575 262.794C552.557 262.722 552.541 262.677 552.53 262.658C552.331 262.853 552.116 262.998 551.888 263.093C551.664 263.188 551.422 263.238 551.164 263.238C550.712 263.238 550.352 263.116 550.088 262.867C549.827 262.62 549.699 262.31 549.699 261.934C549.699 261.688 549.757 261.468 549.88 261.274C549.999 261.074 550.164 260.925 550.377 260.821C550.594 260.719 550.904 260.629 551.309 260.549C551.852 260.448 552.227 260.35 552.44 260.26V260.142C552.44 259.92 552.381 259.762 552.268 259.671C552.159 259.576 551.953 259.527 551.653 259.527C551.44 259.527 551.277 259.57 551.164 259.653C551.049 259.732 550.956 259.875 550.884 260.079ZM552.44 261.02C552.288 261.07 552.051 261.129 551.725 261.201C551.404 261.269 551.196 261.335 551.101 261.4C550.942 261.509 550.866 261.649 550.866 261.817C550.866 261.98 550.924 262.122 551.046 262.242C551.173 262.357 551.329 262.414 551.517 262.414C551.727 262.414 551.926 262.346 552.114 262.206C552.259 262.104 552.351 261.977 552.394 261.826C552.424 261.724 552.44 261.534 552.44 261.255V261.02ZM554.728 258.133V257.055H555.895V258.133H554.728ZM554.728 263.138V258.73H555.895V263.138H554.728ZM556.47 263.238L557.971 256.947H558.849L557.329 263.238H556.47ZM563.136 262.052V263.138H559.048C559.095 262.729 559.229 262.342 559.446 261.98C559.667 261.613 560.106 261.124 560.757 260.513C561.282 260.024 561.603 259.694 561.725 259.517C561.888 259.278 561.97 259.038 561.97 258.802C561.97 258.544 561.897 258.345 561.752 258.205C561.612 258.067 561.422 257.997 561.183 257.997C560.934 257.997 560.739 258.074 560.595 258.223C560.454 258.368 560.373 258.61 560.35 258.947L559.192 258.83C559.258 258.191 559.473 257.732 559.835 257.454C560.201 257.171 560.66 257.028 561.21 257.028C561.807 257.028 562.277 257.191 562.621 257.517C562.965 257.838 563.136 258.239 563.136 258.721C563.136 258.999 563.084 259.262 562.983 259.508C562.885 259.757 562.732 260.015 562.521 260.287C562.381 260.463 562.128 260.719 561.761 261.056C561.393 261.396 561.158 261.622 561.056 261.735C560.959 261.844 560.88 261.95 560.821 262.052H563.136ZM565.896 257.028C566.479 257.028 566.938 257.241 567.271 257.662C567.669 258.157 567.868 258.983 567.868 260.142C567.868 261.289 567.669 262.115 567.271 262.622C566.938 263.034 566.479 263.238 565.896 263.238C565.303 263.238 564.824 263.011 564.457 262.559C564.095 262.106 563.914 261.296 563.914 260.124C563.914 258.979 564.113 258.155 564.511 257.653C564.842 257.236 565.303 257.028 565.896 257.028ZM565.896 257.997C565.751 257.997 565.624 258.042 565.516 258.133C565.407 258.223 565.321 258.384 565.262 258.612C565.176 258.916 565.136 259.425 565.136 260.142C565.136 260.855 565.172 261.344 565.244 261.608C565.317 261.875 565.407 262.052 565.516 262.142C565.624 262.233 565.751 262.278 565.896 262.278C566.033 262.278 566.158 262.233 566.266 262.142C566.38 262.052 566.468 261.889 566.529 261.654C566.606 261.359 566.646 260.855 566.646 260.142C566.646 259.425 566.61 258.934 566.538 258.667C566.465 258.402 566.375 258.223 566.266 258.133C566.158 258.042 566.033 257.997 565.896 257.997ZM572.581 262.052V263.138H568.492C568.539 262.729 568.673 262.342 568.89 261.98C569.111 261.613 569.55 261.124 570.201 260.513C570.726 260.024 571.047 259.694 571.169 259.517C571.332 259.278 571.414 259.038 571.414 258.802C571.414 258.544 571.341 258.345 571.197 258.205C571.056 258.067 570.866 257.997 570.627 257.997C570.378 257.997 570.183 258.074 570.039 258.223C569.898 258.368 569.817 258.61 569.794 258.947L568.636 258.83C568.702 258.191 568.917 257.732 569.279 257.454C569.645 257.171 570.104 257.028 570.654 257.028C571.251 257.028 571.721 257.191 572.065 257.517C572.409 257.838 572.581 258.239 572.581 258.721C572.581 258.999 572.529 259.262 572.427 259.508C572.33 259.757 572.176 260.015 571.965 260.287C571.825 260.463 571.572 260.719 571.206 261.056C570.837 261.396 570.602 261.622 570.5 261.735C570.403 261.844 570.324 261.95 570.265 262.052H572.581ZM573.386 261.572L574.544 261.455C574.58 261.715 574.679 261.923 574.842 262.079C575.005 262.231 575.19 262.305 575.403 262.305C575.643 262.305 575.848 262.21 576.018 262.016C576.185 261.817 576.271 261.518 576.271 261.12C576.271 260.746 576.185 260.466 576.018 260.278C575.855 260.092 575.638 259.997 575.367 259.997C575.034 259.997 574.736 260.147 574.471 260.441L573.521 260.305L574.118 257.137H577.203V258.232H575.005L574.824 259.264C575.082 259.133 575.349 259.065 575.62 259.065C576.138 259.065 576.574 259.255 576.932 259.635C577.294 260.011 577.474 260.495 577.474 261.092C577.474 261.595 577.33 262.043 577.04 262.441C576.642 262.973 576.093 263.238 575.394 263.238C574.833 263.238 574.374 263.091 574.019 262.794C573.662 262.493 573.451 262.086 573.386 261.572ZM580.564 261.518V260.35H582.852V261.518H580.564ZM585.869 263.138V257.055H587.715L588.818 261.201L589.904 257.055H591.749V263.138H590.609V258.35L589.397 263.138H588.221L587.018 258.35V263.138H585.869ZM593.827 260.079L592.769 259.889C592.882 259.461 593.086 259.144 593.375 258.938C593.669 258.734 594.103 258.63 594.678 258.63C595.196 258.63 595.582 258.694 595.836 258.82C596.089 258.943 596.265 259.099 596.369 259.291C596.478 259.479 596.532 259.825 596.532 260.332L596.514 261.69C596.514 262.077 596.532 262.364 596.568 262.55C596.609 262.731 596.682 262.928 596.786 263.138H595.628C595.596 263.061 595.56 262.946 595.519 262.794C595.501 262.722 595.485 262.677 595.474 262.658C595.275 262.853 595.06 262.998 594.832 263.093C594.608 263.188 594.366 263.238 594.108 263.238C593.656 263.238 593.296 263.116 593.031 262.867C592.771 262.62 592.642 262.31 592.642 261.934C592.642 261.688 592.701 261.468 592.823 261.274C592.943 261.074 593.108 260.925 593.321 260.821C593.538 260.719 593.848 260.629 594.253 260.549C594.795 260.448 595.171 260.35 595.383 260.26V260.142C595.383 259.92 595.325 259.762 595.212 259.671C595.103 259.576 594.897 259.527 594.596 259.527C594.384 259.527 594.221 259.57 594.108 259.653C593.993 259.732 593.9 259.875 593.827 260.079ZM595.383 261.02C595.232 261.07 594.994 261.129 594.669 261.201C594.348 261.269 594.14 261.335 594.045 261.4C593.886 261.509 593.809 261.649 593.809 261.817C593.809 261.98 593.868 262.122 593.99 262.242C594.117 262.357 594.273 262.414 594.461 262.414C594.671 262.414 594.87 262.346 595.058 262.206C595.202 262.104 595.295 261.977 595.338 261.826C595.368 261.724 595.383 261.534 595.383 261.255V261.02ZM597.672 258.133V257.055H598.839V258.133H597.672ZM597.672 263.138V258.73H598.839V263.138H597.672ZM599.416 263.238L600.917 256.947H601.795L600.275 263.238H599.416ZM606.08 262.052V263.138H601.992C602.039 262.729 602.172 262.342 602.39 261.98C602.611 261.613 603.05 261.124 603.701 260.513C604.226 260.024 604.547 259.694 604.669 259.517C604.832 259.278 604.913 259.038 604.913 258.802C604.913 258.544 604.841 258.345 604.696 258.205C604.556 258.067 604.366 257.997 604.126 257.997C603.878 257.997 603.683 258.074 603.538 258.223C603.398 258.368 603.317 258.61 603.294 258.947L602.136 258.83C602.202 258.191 602.417 257.732 602.779 257.454C603.145 257.171 603.604 257.028 604.154 257.028C604.751 257.028 605.221 257.191 605.565 257.517C605.908 257.838 606.08 258.239 606.08 258.721C606.08 258.999 606.028 259.262 605.927 259.508C605.829 259.757 605.676 260.015 605.465 260.287C605.325 260.463 605.072 260.719 604.705 261.056C604.337 261.396 604.102 261.622 604 261.735C603.903 261.844 603.823 261.95 603.765 262.052H606.08ZM608.839 257.028C609.423 257.028 609.882 257.241 610.214 257.662C610.612 258.157 610.811 258.983 610.811 260.142C610.811 261.289 610.612 262.115 610.214 262.622C609.882 263.034 609.423 263.238 608.839 263.238C608.247 263.238 607.767 263.011 607.401 262.559C607.039 262.106 606.858 261.296 606.858 260.124C606.858 258.979 607.057 258.155 607.455 257.653C607.786 257.236 608.247 257.028 608.839 257.028ZM608.839 257.997C608.695 257.997 608.568 258.042 608.459 258.133C608.351 258.223 608.265 258.384 608.206 258.612C608.12 258.916 608.08 259.425 608.08 260.142C608.08 260.855 608.116 261.344 608.188 261.608C608.26 261.875 608.351 262.052 608.459 262.142C608.568 262.233 608.695 262.278 608.839 262.278C608.977 262.278 609.102 262.233 609.21 262.142C609.323 262.052 609.412 261.889 609.473 261.654C609.55 261.359 609.59 260.855 609.59 260.142C609.59 259.425 609.554 258.934 609.482 258.667C609.409 258.402 609.319 258.223 609.21 258.133C609.102 258.042 608.977 257.997 608.839 257.997ZM615.524 262.052V263.138H611.436C611.483 262.729 611.617 262.342 611.834 261.98C612.055 261.613 612.494 261.124 613.145 260.513C613.67 260.024 613.991 259.694 614.113 259.517C614.276 259.278 614.358 259.038 614.358 258.802C614.358 258.544 614.285 258.345 614.14 258.205C614 258.067 613.81 257.997 613.57 257.997C613.322 257.997 613.127 258.074 612.983 258.223C612.842 258.368 612.761 258.61 612.738 258.947L611.58 258.83C611.646 258.191 611.861 257.732 612.223 257.454C612.589 257.171 613.048 257.028 613.598 257.028C614.195 257.028 614.665 257.191 615.009 257.517C615.353 257.838 615.524 258.239 615.524 258.721C615.524 258.999 615.472 259.262 615.371 259.508C615.273 259.757 615.12 260.015 614.909 260.287C614.769 260.463 614.516 260.719 614.149 261.056C613.781 261.396 613.546 261.622 613.444 261.735C613.347 261.844 613.267 261.95 613.209 262.052H615.524ZM620.256 258.54L619.134 258.667C619.102 258.438 619.03 258.268 618.917 258.16C618.801 258.047 618.65 257.988 618.464 257.988C618.216 257.988 618.008 258.101 617.84 258.323C617.671 258.54 617.562 258.999 617.515 259.699C617.804 259.361 618.166 259.192 618.6 259.192C619.089 259.192 619.505 259.377 619.848 259.744C620.197 260.113 620.373 260.592 620.373 261.183C620.373 261.805 620.188 262.303 619.821 262.677C619.459 263.052 618.991 263.238 618.419 263.238C617.804 263.238 617.297 263 616.899 262.523C616.506 262.047 616.311 261.264 616.311 260.178C616.311 259.063 616.515 258.259 616.927 257.77C617.343 257.277 617.879 257.028 618.537 257.028C618.994 257.028 619.374 257.159 619.677 257.417C619.984 257.678 620.176 258.051 620.256 258.54ZM617.614 261.092C617.614 261.468 617.7 261.76 617.876 261.97C618.051 262.176 618.25 262.278 618.473 262.278C618.691 262.278 618.871 262.195 619.016 262.025C619.161 261.857 619.233 261.579 619.233 261.192C619.233 260.794 619.154 260.504 618.998 260.323C618.84 260.138 618.648 260.042 618.419 260.042C618.195 260.042 618.005 260.133 617.849 260.314C617.691 260.491 617.614 260.749 617.614 261.092Z" fill="white"/>
<path d="M557.094 142.542V143.89C557.094 146.384 556.293 148.403 554.697 149.946C553.104 151.492 551.047 152.263 548.527 152.263C545.836 152.263 543.608 151.39 541.842 149.638C540.074 147.882 539.192 145.744 539.192 143.221C539.192 140.675 540.065 138.523 541.815 136.767C543.563 135.006 545.734 134.124 548.328 134.124C549.95 134.124 551.433 134.495 552.779 135.237C554.122 135.975 555.169 136.957 555.918 138.188L552.978 139.88C552.566 139.163 551.942 138.582 551.105 138.133C550.266 137.688 549.332 137.464 548.301 137.464C546.641 137.464 545.275 138.007 544.203 139.093C543.136 140.179 542.602 141.555 542.602 143.221C542.602 144.863 543.145 146.221 544.23 147.294C545.316 148.362 546.756 148.896 548.554 148.896C549.88 148.896 550.979 148.604 551.847 148.018C552.72 147.427 553.315 146.615 553.629 145.583H548.355V142.542H557.094Z" fill="white"/>
<path d="M562.15 141.367C562.451 140.571 562.946 139.973 563.634 139.575C564.321 139.172 565.09 138.969 565.941 138.969V142.562C564.957 142.449 564.08 142.648 563.308 143.16C562.535 143.673 562.15 144.527 562.15 145.721V151.677H558.939V139.222H562.15V141.367Z" fill="white"/>
<path d="M570.685 146.771C571.12 148.335 572.289 149.116 574.195 149.116C575.426 149.116 576.357 148.699 576.991 147.867L579.578 149.36C578.347 151.141 576.538 152.03 574.15 152.03C572.092 152.03 570.441 151.41 569.193 150.166C567.949 148.917 567.329 147.346 567.329 145.45C567.329 143.574 567.94 142.008 569.166 140.752C570.396 139.498 571.972 138.869 573.897 138.869C575.724 138.869 577.23 139.503 578.42 140.77C579.607 142.033 580.202 143.592 580.202 145.45C580.202 145.866 580.159 146.307 580.075 146.771H570.685ZM570.64 144.282H576.991C576.803 143.431 576.423 142.802 575.851 142.39C575.276 141.974 574.625 141.766 573.897 141.766C573.033 141.766 572.318 141.987 571.753 142.426C571.192 142.868 570.821 143.486 570.64 144.282Z" fill="white"/>
<path d="M591.618 139.222H594.829V151.677H591.618V150.211C590.659 151.424 589.307 152.03 587.565 152.03C585.901 152.03 584.474 151.394 583.287 150.12C582.104 148.849 581.514 147.292 581.514 145.45C581.514 143.61 582.104 142.053 583.287 140.779C584.474 139.507 585.901 138.869 587.565 138.869C589.307 138.869 590.659 139.476 591.618 140.689V139.222ZM585.693 147.984C586.337 148.636 587.158 148.962 588.153 148.962C589.153 148.962 589.981 148.636 590.632 147.984C591.288 147.328 591.618 146.482 591.618 145.45C591.618 144.418 591.288 143.576 590.632 142.924C589.981 142.268 589.153 141.938 588.153 141.938C587.158 141.938 586.337 142.268 585.693 142.924C585.046 143.576 584.725 144.418 584.725 145.45C584.725 146.482 585.046 147.328 585.693 147.984Z" fill="white"/>
<path d="M605.427 142.309H602.613V147.495C602.613 147.925 602.722 148.238 602.939 148.437C603.156 148.636 603.473 148.751 603.889 148.781C604.305 148.806 604.816 148.799 605.427 148.763V151.677C603.22 151.924 601.664 151.716 600.759 151.053C599.854 150.39 599.402 149.204 599.402 147.495V142.309H597.24V139.222H599.402V136.706L602.613 135.737V139.222H605.427V142.309Z" fill="white"/>
<path d="M547.93 156.201C549.606 156.201 551.017 156.766 552.164 157.893C553.308 159.023 553.882 160.41 553.882 162.057C553.882 163.7 553.308 165.085 552.164 166.212C551.017 167.341 549.606 167.905 547.93 167.905H544.873V173.634H541.435V156.201H547.93ZM547.93 164.691C548.658 164.691 549.264 164.438 549.748 163.931C550.23 163.424 550.472 162.797 550.472 162.048C550.472 161.288 550.23 160.661 549.748 160.165C549.264 159.665 548.658 159.414 547.93 159.414H544.873V164.691H547.93Z" fill="white"/>
<path d="M556.334 173.924V155.739H559.545V173.924H556.334Z" fill="white"/>
<path d="M572.049 161.179H575.26V173.634H572.049V172.168C571.09 173.381 569.738 173.987 567.997 173.987C566.332 173.987 564.905 173.351 563.718 172.077C562.535 170.806 561.945 169.249 561.945 167.407C561.945 165.567 562.535 164.01 563.718 162.736C564.905 161.464 566.332 160.826 567.997 160.826C569.738 160.826 571.09 161.433 572.049 162.646V161.179ZM566.124 169.941C566.769 170.593 567.589 170.919 568.585 170.919C569.584 170.919 570.412 170.593 571.063 169.941C571.719 169.285 572.049 168.439 572.049 167.407C572.049 166.375 571.719 165.533 571.063 164.881C570.412 164.225 569.584 163.895 568.585 163.895C567.589 163.895 566.769 164.225 566.124 164.881C565.477 165.533 565.156 166.375 565.156 167.407C565.156 168.439 565.477 169.285 566.124 169.941Z" fill="white"/>
<path d="M584.549 173.987C582.671 173.987 581.106 173.358 579.854 172.096C578.605 170.828 577.981 169.267 577.981 167.407C577.981 165.549 578.605 163.99 579.854 162.727C581.106 161.46 582.671 160.826 584.549 160.826C585.761 160.826 586.864 161.12 587.859 161.704C588.854 162.283 589.61 163.062 590.13 164.04L587.362 165.66C587.113 165.148 586.738 164.743 586.231 164.447C585.725 164.146 585.157 163.994 584.53 163.994C583.565 163.994 582.766 164.316 582.133 164.954C581.505 165.594 581.192 166.411 581.192 167.407C581.192 168.384 581.505 169.194 582.133 169.833C582.766 170.473 583.565 170.792 584.53 170.792C585.175 170.792 585.752 170.647 586.258 170.358C586.765 170.068 587.14 169.667 587.389 169.154L590.175 170.747C589.626 171.724 588.854 172.51 587.859 173.1C586.864 173.691 585.761 173.987 584.549 173.987Z" fill="white"/>
<path d="M595.232 168.728C595.666 170.292 596.835 171.073 598.742 171.073C599.972 171.073 600.904 170.656 601.537 169.824L604.124 171.317C602.894 173.098 601.085 173.987 598.697 173.987C596.639 173.987 594.988 173.367 593.739 172.123C592.496 170.874 591.876 169.303 591.876 167.407C591.876 165.531 592.486 163.965 593.712 162.709C594.942 161.455 596.519 160.826 598.443 160.826C600.271 160.826 601.777 161.46 602.966 162.727C604.154 163.99 604.748 165.549 604.748 167.407C604.748 167.823 604.705 168.264 604.622 168.728H595.232ZM595.187 166.239H601.537C601.349 165.388 600.969 164.759 600.397 164.347C599.823 163.931 599.171 163.723 598.443 163.723C597.579 163.723 596.865 163.944 596.299 164.383C595.739 164.825 595.368 165.443 595.187 166.239Z" fill="white"/>
<path d="M552.091 178.504V181.79H547.387V195.938H543.95V181.79H539.273V178.504H552.091Z" fill="white"/>
<path d="M562.024 193.976C560.744 195.25 559.183 195.886 557.338 195.886C555.497 195.886 553.941 195.25 552.67 193.976C551.404 192.704 550.771 191.147 550.771 189.305C550.771 187.465 551.404 185.909 552.67 184.635C553.941 183.363 555.497 182.725 557.338 182.725C559.183 182.725 560.744 183.363 562.024 184.635C563.302 185.909 563.942 187.465 563.942 189.305C563.942 191.147 563.302 192.704 562.024 193.976ZM554.941 191.776C555.578 192.424 556.379 192.745 557.338 192.745C558.301 192.745 559.106 192.424 559.753 191.776C560.405 191.125 560.73 190.301 560.73 189.305C560.73 188.31 560.405 187.49 559.753 186.843C559.106 186.191 558.301 185.866 557.338 185.866C556.379 185.866 555.578 186.191 554.941 186.843C554.301 187.49 553.982 188.31 553.982 189.305C553.982 190.301 554.301 191.125 554.941 191.776Z" fill="white"/>
<path d="M544.493 218.126L539.608 200.692H543.217L546.555 213.618L550.192 200.692H553.132L556.786 213.618L560.124 200.692H563.734L558.858 218.126H554.95L551.657 206.621L548.401 218.126H544.493Z" fill="white"/>
<path d="M574.645 216.336C573.365 217.61 571.805 218.246 569.96 218.246C568.119 218.246 566.563 217.61 565.292 216.336C564.025 215.064 563.392 213.507 563.392 211.665C563.392 209.825 564.025 208.268 565.292 206.994C566.563 205.723 568.119 205.084 569.96 205.084C571.805 205.084 573.365 205.723 574.645 206.994C575.923 208.268 576.563 209.825 576.563 211.665C576.563 213.507 575.923 215.064 574.645 216.336ZM567.562 214.136C568.2 214.783 569.001 215.105 569.96 215.105C570.923 215.105 571.728 214.783 572.375 214.136C573.026 213.484 573.352 212.661 573.352 211.665C573.352 210.669 573.026 209.85 572.375 209.203C571.728 208.551 570.923 208.225 569.96 208.225C569.001 208.225 568.2 208.551 567.562 209.203C566.922 209.85 566.603 210.669 566.603 211.665C566.603 212.661 566.922 213.484 567.562 214.136Z" fill="white"/>
<path d="M582.009 207.816C582.31 207.02 582.805 206.422 583.492 206.024C584.18 205.621 584.949 205.417 585.799 205.417V209.011C584.815 208.898 583.938 209.097 583.167 209.608C582.393 210.122 582.009 210.975 582.009 212.17V218.126H578.797V205.671H582.009V207.816Z" fill="white"/>
<path d="M599.54 218.067H595.804L591.272 212.41V218.067H588.061V200.633H591.272V211.088L595.56 205.612H599.395L594.384 211.767L599.54 218.067Z" fill="white"/>
<path d="M604.16 217.373L603.591 216.386H603.165V217.373H602.604V214.53H603.744C604.002 214.53 604.224 214.625 604.405 214.811C604.59 214.992 604.685 215.214 604.685 215.472C604.685 215.648 604.633 215.811 604.531 215.96C604.434 216.112 604.301 216.227 604.133 216.304L604.766 217.373H604.16ZM603.165 215.055V215.897H603.744C603.846 215.897 603.934 215.859 604.007 215.779C604.084 215.696 604.124 215.596 604.124 215.481C604.124 215.361 604.084 215.261 604.007 215.182C603.934 215.098 603.846 215.055 603.744 215.055H603.165Z" fill="white"/>
<path d="M603.5 213.208C602.025 213.208 600.84 214.394 600.84 215.87C600.84 217.336 602.025 218.531 603.5 218.531C604.974 218.531 606.16 217.336 606.16 215.87C606.16 214.394 604.974 213.208 603.5 213.208ZM603.5 213.924C604.567 213.924 605.445 214.793 605.445 215.87C605.445 216.938 604.567 217.816 603.5 217.816C602.433 217.816 601.555 216.938 601.555 215.87C601.555 214.793 602.433 213.924 603.5 213.924Z" fill="white"/>
<path d="M543.878 232.579C544.613 232.579 545.302 232.685 545.949 232.896C546.6 233.109 547.179 233.412 547.686 233.81C548.192 234.208 548.613 234.695 548.952 235.267C549.296 235.842 549.522 236.487 549.631 237.205L547.017 237.431C546.847 236.562 546.478 235.908 545.913 235.467C545.345 235.021 544.64 234.797 543.796 234.797C543.265 234.797 542.778 234.894 542.34 235.086C541.905 235.274 541.535 235.544 541.227 235.892C540.919 236.236 540.68 236.659 540.512 237.159C540.343 237.655 540.259 238.209 540.259 238.825C540.259 239.483 540.35 240.063 540.53 240.563C540.716 241.058 540.969 241.477 541.29 241.821C541.609 242.16 541.982 242.416 542.412 242.59C542.846 242.76 543.312 242.844 543.814 242.844C544.646 242.844 545.348 242.627 545.922 242.192C546.494 241.753 546.858 241.11 547.017 240.264L549.649 240.49C549.527 241.21 549.296 241.848 548.952 242.409C548.613 242.97 548.192 243.45 547.686 243.848C547.184 244.242 546.609 244.543 545.958 244.754C545.311 244.964 544.624 245.07 543.896 245.07C543.009 245.07 542.186 244.928 541.426 244.645C540.671 244.355 540.017 243.944 539.463 243.405C538.914 242.869 538.486 242.215 538.179 241.441C537.871 240.669 537.717 239.798 537.717 238.825C537.717 237.843 537.871 236.965 538.179 236.191C538.486 235.412 538.914 234.758 539.463 234.227C540.017 233.69 540.668 233.283 541.417 233.005C542.17 232.722 542.991 232.579 543.878 232.579Z" fill="white"/>
<path d="M553.466 241.45C553.484 241.97 553.643 242.382 553.946 242.69C554.253 242.998 554.674 243.152 555.212 243.152C555.622 243.152 555.959 243.07 556.225 242.907C556.49 242.744 556.664 242.518 556.75 242.228L559.138 242.346C559.059 242.744 558.905 243.111 558.677 243.441C558.453 243.767 558.17 244.055 557.827 244.301C557.487 244.543 557.098 244.733 556.66 244.871C556.225 245.003 555.764 245.071 555.276 245.071C554.642 245.071 554.057 244.971 553.521 244.772C552.982 244.568 552.526 244.279 552.146 243.903C551.77 243.523 551.478 243.066 551.268 242.527C551.056 241.984 550.952 241.377 550.952 240.708C550.952 240.027 551.056 239.418 551.268 238.879C551.478 238.343 551.77 237.888 552.146 237.512C552.526 237.132 552.973 236.843 553.493 236.643C554.011 236.444 554.584 236.345 555.212 236.345C555.814 236.345 556.363 236.44 556.859 236.625C557.352 236.813 557.775 237.087 558.125 237.449C558.473 237.807 558.742 238.243 558.93 238.762C559.122 239.282 559.22 239.864 559.22 240.509V241.45H553.466ZM555.194 238.191C554.688 238.191 554.28 238.341 553.973 238.635C553.665 238.924 553.496 239.339 553.466 239.875H556.831C556.813 239.357 556.671 238.947 556.406 238.644C556.139 238.343 555.737 238.191 555.194 238.191Z" fill="white"/>
<path d="M565.543 238.707C564.86 238.707 564.322 238.886 563.924 239.241C563.525 239.592 563.326 240.056 563.326 240.635V244.89H560.956V236.508H563.245V237.458C563.426 237.182 563.691 236.94 564.041 236.734C564.396 236.53 564.896 236.426 565.543 236.426V238.707Z" fill="white"/>
<path d="M570.036 241.599C570.036 242.065 570.163 242.394 570.416 242.586C570.67 242.774 570.964 242.866 571.303 242.866C571.47 242.866 571.613 242.862 571.728 242.848C571.841 242.83 571.941 242.81 572.027 242.785V244.894C571.857 244.917 571.676 244.939 571.484 244.957C571.296 244.98 571.04 244.994 570.715 244.994C570.263 244.994 569.846 244.935 569.466 244.822C569.091 244.708 568.772 244.539 568.508 244.315C568.241 244.086 568.033 243.794 567.883 243.437C567.739 243.081 567.666 242.658 567.666 242.169L567.684 238.485H566.165V236.449H567.703L567.721 233.67H570.082L570.073 236.449H572.027V238.485H570.054L570.036 241.599Z" fill="white"/>
<path d="M574.704 232.335C575.102 232.335 575.439 232.475 575.717 232.751C575.993 233.023 576.133 233.362 576.133 233.765C576.133 234.152 575.993 234.485 575.717 234.761C575.439 235.039 575.102 235.177 574.704 235.177C574.306 235.177 573.971 235.039 573.7 234.761C573.429 234.485 573.293 234.152 573.293 233.765C573.293 233.566 573.329 233.383 573.402 233.213C573.478 233.039 573.582 232.887 573.709 232.76C573.84 232.629 573.992 232.525 574.161 232.453C574.329 232.376 574.51 232.335 574.704 232.335ZM573.519 244.89V236.508H575.889V244.89H573.519Z" fill="white"/>
<path d="M582.136 232.19C582.316 232.19 582.466 232.194 582.588 232.199C582.714 232.206 582.837 232.217 582.959 232.235V234.281C582.886 234.27 582.805 234.261 582.714 234.254C582.629 234.249 582.527 234.245 582.407 234.245C581.995 234.245 581.658 234.369 581.394 234.616C581.127 234.858 580.996 235.177 580.996 235.575V236.508H582.941V238.544H580.996V244.89H578.644V238.544H577.124V236.508H578.644V235.648C578.644 235.118 578.727 234.641 578.897 234.218C579.064 233.797 579.3 233.435 579.603 233.131C579.903 232.83 580.268 232.597 580.697 232.434C581.125 232.271 581.604 232.19 582.136 232.19Z" fill="white"/>
<path d="M585.589 232.335C585.987 232.335 586.324 232.475 586.602 232.751C586.878 233.023 587.018 233.362 587.018 233.765C587.018 234.152 586.878 234.485 586.602 234.761C586.324 235.039 585.987 235.177 585.589 235.177C585.191 235.177 584.856 235.039 584.585 234.761C584.313 234.485 584.178 234.152 584.178 233.765C584.178 233.566 584.214 233.383 584.286 233.213C584.363 233.039 584.467 232.887 584.594 232.76C584.725 232.629 584.876 232.525 585.046 232.453C585.213 232.376 585.394 232.335 585.589 232.335ZM584.404 244.89V236.508H586.774V244.89H584.404Z" fill="white"/>
<path d="M592.706 236.345C593.212 236.345 593.687 236.417 594.135 236.562C594.587 236.707 594.988 236.922 595.338 237.205C595.686 237.483 595.976 237.825 596.207 238.227C596.442 238.626 596.598 239.078 596.677 239.585L594.361 239.784C594.307 239.35 594.128 239.006 593.828 238.752C593.531 238.499 593.158 238.372 592.706 238.372C592.149 238.372 591.695 238.576 591.34 238.979C590.983 239.384 590.806 239.961 590.806 240.708C590.806 241.45 590.983 242.025 591.34 242.427C591.695 242.826 592.149 243.025 592.706 243.025C593.169 243.025 593.547 242.905 593.837 242.663C594.131 242.416 594.309 242.081 594.37 241.658L596.677 241.875C596.587 242.371 596.426 242.817 596.198 243.215C595.974 243.609 595.686 243.944 595.338 244.22C594.988 244.491 594.59 244.704 594.144 244.853C593.703 244.998 593.224 245.071 592.706 245.071C592.091 245.071 591.521 244.971 590.996 244.772C590.471 244.568 590.015 244.281 589.63 243.912C589.25 243.539 588.952 243.084 588.735 242.545C588.517 242.002 588.409 241.391 588.409 240.708C588.409 240.015 588.517 239.4 588.735 238.861C588.952 238.318 589.246 237.861 589.621 237.485C590.001 237.112 590.456 236.829 590.987 236.634C591.516 236.442 592.091 236.345 592.706 236.345Z" fill="white"/>
<path d="M601.514 236.286C602.647 236.286 603.509 236.571 604.102 237.137C604.699 237.705 604.997 238.545 604.997 239.653V244.831H602.718V244.152C602.476 244.401 602.179 244.605 601.831 244.768C601.481 244.931 601.062 245.012 600.574 245.012C599.728 245.012 599.054 244.802 598.547 244.378C598.041 243.957 597.787 243.342 597.787 242.532C597.787 242.061 597.878 241.67 598.059 241.355C598.244 241.036 598.493 240.78 598.801 240.586C599.108 240.387 599.463 240.242 599.868 240.151C600.271 240.061 600.696 240.004 601.144 239.979L602.636 239.898V239.572C602.636 238.71 602.274 238.278 601.551 238.278C601.135 238.278 600.836 238.393 600.655 238.621C600.474 238.846 600.384 239.099 600.384 239.382L598.014 239.282C598.014 238.916 598.095 238.554 598.258 238.196C598.421 237.841 598.651 237.522 598.954 237.237C599.255 236.947 599.619 236.718 600.049 236.549C600.483 236.374 600.972 236.286 601.514 236.286ZM601.37 241.536C601.012 241.561 600.721 241.64 600.492 241.771C600.262 241.898 600.148 242.113 600.148 242.414C600.148 242.699 600.239 242.898 600.42 243.012C600.605 243.12 600.841 243.174 601.125 243.174C601.56 243.174 601.917 243.064 602.202 242.84C602.491 242.611 602.636 242.269 602.636 241.817V241.455L601.37 241.536Z" fill="white"/>
<path d="M613.062 244.949V244.089C612.845 244.374 612.521 244.618 612.094 244.822C611.671 245.026 611.162 245.13 610.565 245.13C609.968 245.13 609.421 245.026 608.928 244.822C608.439 244.618 608.016 244.322 607.661 243.935C607.304 243.55 607.028 243.091 606.829 242.559C606.63 242.023 606.53 241.425 606.53 240.767C606.53 240.104 606.63 239.506 606.829 238.974C607.028 238.438 607.304 237.979 607.661 237.599C608.016 237.214 608.439 236.917 608.928 236.712C609.421 236.508 609.968 236.404 610.565 236.404C611.112 236.404 611.589 236.492 611.994 236.666C612.404 236.836 612.718 237.044 612.935 237.291V232.349H615.287V244.949H613.062ZM610.954 238.431C610.361 238.431 609.877 238.635 609.498 239.038C609.118 239.443 608.928 240.02 608.928 240.767C608.928 241.509 609.118 242.084 609.498 242.487C609.877 242.885 610.361 243.084 610.954 243.084C611.537 243.084 612.015 242.898 612.383 242.523C612.75 242.149 612.935 241.622 612.935 240.939V240.568C612.935 239.886 612.75 239.361 612.383 238.993C612.015 238.619 611.537 238.431 610.954 238.431Z" fill="white"/>
<path d="M620.679 236.345C621.812 236.345 622.673 236.63 623.266 237.196C623.863 237.764 624.161 238.603 624.161 239.712V244.89H621.882V244.211C621.64 244.46 621.343 244.663 620.995 244.826C620.645 244.989 620.226 245.071 619.738 245.071C618.892 245.071 618.218 244.86 617.711 244.437C617.205 244.016 616.952 243.401 616.952 242.59C616.952 242.12 617.042 241.728 617.223 241.414C617.408 241.095 617.657 240.839 617.965 240.644C618.272 240.445 618.627 240.3 619.032 240.21C619.435 240.119 619.86 240.063 620.308 240.038L621.8 239.956V239.631C621.8 238.768 621.438 238.336 620.715 238.336C620.299 238.336 620 238.452 619.819 238.68C619.638 238.904 619.548 239.158 619.548 239.44L617.178 239.341C617.178 238.974 617.259 238.612 617.422 238.255C617.585 237.899 617.815 237.58 618.118 237.295C618.419 237.006 618.783 236.777 619.213 236.607C619.647 236.433 620.136 236.345 620.679 236.345ZM620.534 241.595C620.176 241.62 619.885 241.699 619.656 241.83C619.426 241.957 619.313 242.172 619.313 242.473C619.313 242.758 619.403 242.957 619.584 243.07C619.769 243.179 620.005 243.233 620.29 243.233C620.724 243.233 621.081 243.122 621.366 242.898C621.655 242.67 621.8 242.328 621.8 241.875V241.513L620.534 241.595Z" fill="white"/>
<path d="M568.77 274.887C569.064 274.887 569.335 274.923 569.584 274.996C569.831 275.068 570.045 275.181 570.226 275.331C570.407 275.482 570.545 275.672 570.643 275.901C570.744 276.125 570.796 276.39 570.796 276.698C570.796 277.005 570.735 277.266 570.615 277.476C570.5 277.689 570.349 277.854 570.163 277.974C570.41 278.071 570.62 278.245 570.796 278.499C570.977 278.752 571.068 279.085 571.068 279.495C571.068 279.809 571.013 280.083 570.905 280.318C570.801 280.549 570.656 280.744 570.471 280.907C570.29 281.065 570.068 281.185 569.81 281.269C569.55 281.348 569.27 281.386 568.969 281.386H566.056V274.887H568.77ZM567.395 277.494H568.689C568.91 277.494 569.089 277.44 569.222 277.331C569.36 277.218 569.43 277.037 569.43 276.788C569.43 276.541 569.353 276.36 569.204 276.245C569.059 276.125 568.863 276.064 568.616 276.064H567.395V277.494ZM567.395 280.192H568.806C569.071 280.192 569.286 280.135 569.448 280.02C569.611 279.9 569.693 279.7 569.693 279.422C569.693 279.146 569.611 278.947 569.448 278.825C569.286 278.698 569.078 278.635 568.824 278.635H567.395V280.192Z" fill="white"/>
<path d="M574.568 279.051H573.483V281.386H572.135V274.887H574.912C575.22 274.887 575.502 274.937 575.762 275.032C576.02 275.123 576.242 275.256 576.423 275.43C576.608 275.607 576.753 275.824 576.857 276.082C576.959 276.342 577.011 276.639 577.011 276.969C577.011 277.422 576.916 277.809 576.73 278.128C576.543 278.442 576.287 278.678 575.961 278.834L577.346 281.386H575.835L574.568 279.051ZM574.749 277.856C575.007 277.856 575.222 277.781 575.392 277.63C575.559 277.481 575.645 277.259 575.645 276.969C575.645 276.675 575.559 276.451 575.392 276.299C575.222 276.143 575.007 276.064 574.749 276.064H573.474V277.856H574.749Z" fill="white"/>
<path d="M582.757 281.386L582.224 280.137H579.519L578.985 281.386H577.52L580.306 274.887H581.437L584.232 281.386H582.757ZM581.753 279.042L580.876 276.96L579.998 279.042H581.753Z" fill="white"/>
<path d="M586.665 274.788C587.014 274.788 587.335 274.833 587.624 274.923C587.914 275.014 588.162 275.147 588.375 275.322C588.592 275.498 588.757 275.709 588.873 275.955C588.992 276.197 589.058 276.476 589.072 276.788L587.697 276.86C587.69 276.584 587.599 276.363 587.425 276.2C587.249 276.037 587.005 275.955 586.692 275.955C586.378 275.955 586.136 276.028 585.969 276.173C585.806 276.317 585.725 276.505 585.725 276.734C585.725 276.86 585.747 276.967 585.797 277.051C585.851 277.13 585.926 277.202 586.023 277.268C586.125 277.329 586.254 277.383 586.412 277.431C586.575 277.48 586.767 277.53 586.991 277.585C587.321 277.671 587.624 277.763 587.896 277.865C588.167 277.969 588.398 278.091 588.592 278.236C588.791 278.381 588.94 278.558 589.044 278.761C589.146 278.96 589.198 279.205 589.198 279.494C589.198 279.838 589.135 280.137 589.008 280.391C588.882 280.64 588.71 280.843 588.493 281.006C588.276 281.169 588.022 281.291 587.733 281.368C587.443 281.445 587.136 281.486 586.81 281.486C586.435 281.486 586.089 281.441 585.77 281.35C585.455 281.26 585.182 281.128 584.947 280.952C584.716 280.771 584.535 280.551 584.404 280.291C584.277 280.033 584.209 279.734 584.205 279.395L585.571 279.323C585.575 279.474 585.609 279.612 585.67 279.739C585.736 279.861 585.824 279.965 585.933 280.056C586.041 280.142 586.17 280.207 586.322 280.255C586.471 280.298 586.634 280.318 586.81 280.318C587.111 280.318 587.355 280.262 587.543 280.146C587.735 280.033 587.832 279.838 587.832 279.567C587.832 279.32 587.717 279.139 587.489 279.024C587.265 278.904 586.937 278.786 586.503 278.671C586.206 278.598 585.928 278.521 585.67 278.435C585.41 278.345 585.182 278.232 584.983 278.091C584.788 277.953 584.635 277.779 584.521 277.566C584.413 277.356 584.359 277.094 584.359 276.779C584.359 276.514 584.404 276.261 584.494 276.019C584.589 275.779 584.734 275.566 584.929 275.385C585.121 275.204 585.363 275.059 585.652 274.951C585.942 274.842 586.279 274.788 586.665 274.788Z" fill="white"/>
<path d="M590.257 281.386V274.887H591.604V281.386H590.257Z" fill="white"/>
<path d="M596.982 280.192V281.386H592.803V274.887H594.151V280.192H596.982Z" fill="white"/>
<path d="M625.59 275.901V278.128H624.668V275.901H623.655V275.005H626.613V275.901H625.59ZM629.806 278.128V276.833L629.1 278.092H628.684L627.979 276.833V278.128H627.056V275.005H627.843L628.892 276.888L629.942 275.005H630.738V278.128H629.806Z" fill="#002171"/>
</g>
</g>
<defs>
<linearGradient id="paint0_linear_201_50" x1="272.739" y1="95.1862" x2="239.828" y2="254.96" gradientUnits="userSpaceOnUse">
<stop offset="0.22" stop-color="#0160E0"/>
<stop offset="1" stop-color="#00CA8B"/>
</linearGradient>
<linearGradient id="paint1_linear_201_50" x1="762.946" y1="-112.019" x2="671.243" y2="333.313" gradientUnits="userSpaceOnUse">
<stop offset="0.22" stop-color="#0160E0"/>
<stop offset="1" stop-color="#00CA8B"/>
</linearGradient>
<clipPath id="clip0_201_50">
<rect width="847.425" height="407" fill="white" transform="translate(0.57489)"/>
</clipPath>
<clipPath id="clip1_201_50">
<rect width="488.251" height="195.301" fill="white" transform="translate(8.43964 100.135)"/>
</clipPath>
<clipPath id="clip2_201_50">
<rect width="487" height="424" fill="white" transform="translate(457 -12)"/>
</clipPath>
<clipPath id="clip3_201_50">
<rect width="99" height="168" fill="white" transform="translate(532 127)"/>
</clipPath>
</defs>
</svg>
