<svg width="848" height="407" viewBox="0 0 848 407" fill="none" xmlns="http://www.w3.org/2000/svg">
<g clip-path="url(#clip0_224_5384)">
<rect width="847.425" height="407" fill="white"/>
<g clip-path="url(#clip1_224_5384)">
<g opacity="0.8">
<path d="M417.194 1519.88C17.2418 2332.95 -485.015 881.309 44.136 898.083C309.116 906.482 218.899 288.208 478.114 338.478C737.33 388.749 644.185 644.988 739.007 932.689C857.42 1291.97 520.55 1309.79 417.202 1519.88H417.194Z" stroke="#12274B" stroke-width="1.37" stroke-miterlimit="10"/>
<g style="mix-blend-mode:hard-light" opacity="0.94">
<path d="M428.547 1528.58C24.374 2290.49 -479.543 923.647 33.1496 896.214C287.869 882.585 248.128 283.854 495.657 349.622C743.128 415.197 671.746 667.7 745.238 946.109C838.175 1293.15 535.248 1327.44 428.547 1528.58V1528.58Z" stroke="#12274B" stroke-width="1.37" stroke-miterlimit="10"/>
</g>
<g style="mix-blend-mode:hard-light" opacity="0.88">
<path d="M439.9 1537.28C32.5241 2247.96 -474.971 966.436 22.1551 894.346C266.222 858.956 277.359 279.5 513.192 360.773C748.926 441.655 698.299 690.621 751.47 959.547C817.704 1294.58 550.138 1344.98 439.9 1537.28Z" stroke="#12274B" stroke-width="1.37" stroke-miterlimit="10"/>
</g>
<g style="mix-blend-mode:hard-light" opacity="0.81">
<path d="M451.245 1545.98C41.8419 2205.44 -471.209 1009.92 11.1687 892.477C244.224 835.735 306.597 275.138 530.727 371.916C754.715 468.095 725.376 713.316 757.693 972.975C797.867 1295.75 565.237 1362.37 451.245 1545.98Z" stroke="#12274B" stroke-width="1.37" stroke-miterlimit="10"/>
</g>
<g style="mix-blend-mode:hard-light" opacity="0.75">
<path d="M462.598 1554.68C52.4527 2163.02 -468.048 1054.37 0.182489 890.609C222.002 813.031 335.827 270.784 548.261 383.06C760.512 494.544 752.487 735.928 763.924 986.404C778.097 1296.82 580.603 1379.65 462.598 1554.67V1554.68Z" stroke="#12274B" stroke-width="1.37" stroke-miterlimit="10"/>
</g>
<g style="mix-blend-mode:hard-light" opacity="0.69">
<path d="M473.952 1563.38C64.4902 2120.87 -465.153 1099.93 -10.8037 888.741C199.679 790.903 365.057 266.422 565.804 394.203C766.31 520.993 779.682 758.457 770.164 999.833C758.418 1297.78 596.269 1396.84 473.96 1563.37L473.952 1563.38Z" stroke="#12274B" stroke-width="1.37" stroke-miterlimit="10"/>
</g>
<g style="mix-blend-mode:hard-light" opacity="0.62">
<path d="M485.305 1572.07C78.0707 2079.11 -462.183 1146.66 -21.7984 886.873C177.406 769.358 394.287 262.068 583.339 405.347C772.099 547.442 806.952 780.919 776.387 1013.26C738.84 1298.67 612.26 1414 485.297 1572.07H485.305Z" stroke="#12274B" stroke-width="1.37" stroke-miterlimit="10"/>
</g>
<g style="mix-blend-mode:hard-light" opacity="0.56">
<path d="M496.65 1580.77C93.278 2037.96 -458.772 1194.47 -32.7847 885.004C155.358 748.331 423.517 257.714 600.874 416.498C777.897 573.899 834.346 803.347 782.618 1026.7C719.429 1299.5 628.635 1431.19 496.65 1580.78V1580.77Z" stroke="#12274B" stroke-width="1.37" stroke-miterlimit="10"/>
</g>
<g style="mix-blend-mode:hard-light" opacity="0.5">
<path d="M508.003 1589.47C110.162 1997.62 -454.651 1243.2 -43.7709 883.136C133.619 727.687 452.755 253.36 618.408 427.642C783.686 600.339 861.883 825.759 788.85 1040.13C700.192 1300.33 645.444 1448.48 508.003 1589.47Z" stroke="#12274B" stroke-width="1.37" stroke-miterlimit="10"/>
</g>
<g style="mix-blend-mode:hard-light" opacity="0.44">
<path d="M519.357 1598.17C128.706 1958.33 -449.637 1292.58 -54.7571 881.267C112.247 707.31 481.985 249.006 635.951 438.785C789.484 626.788 889.578 848.204 795.081 1053.56C681.131 1301.2 662.72 1466 519.357 1598.17Z" stroke="#12274B" stroke-width="1.37" stroke-miterlimit="10"/>
</g>
<g style="mix-blend-mode:hard-light" opacity="0.38">
<path d="M530.702 1606.87C148.802 1920.35 -443.681 1342.37 -65.7518 879.399C91.2509 687.068 511.215 244.644 653.486 449.929C795.281 653.237 917.382 870.733 801.313 1066.98C662.22 1302.16 680.497 1483.91 530.71 1606.87H530.702Z" stroke="#12274B" stroke-width="1.37" stroke-miterlimit="10"/>
</g>
<g style="mix-blend-mode:hard-light" opacity="0.31">
<path d="M542.055 1615.57C170.274 1883.95 -436.807 1392.3 -76.738 877.539C70.6214 666.874 540.445 240.298 671.021 461.081C801.071 679.694 945.294 893.379 807.536 1080.42C643.417 1303.26 698.782 1502.44 542.047 1615.58L542.055 1615.57Z" stroke="#12274B" stroke-width="1.37" stroke-miterlimit="10"/>
</g>
<g style="mix-blend-mode:hard-light" opacity="0.25">
<path d="M553.408 1624.27C192.805 1849.36 -429.108 1442.21 -87.7243 875.67C50.3006 646.614 569.683 235.936 688.564 472.224C806.868 706.134 973.264 916.149 813.775 1093.85C624.698 1304.52 717.593 1521.79 553.408 1624.27Z" stroke="#12274B" stroke-width="1.37" stroke-miterlimit="10"/>
</g>
<g style="mix-blend-mode:hard-light" opacity="0.19">
<path d="M564.753 1632.97C215.904 1816.8 -420.724 1491.97 -98.7189 873.802C30.23 626.254 598.905 231.582 706.098 483.367C812.666 732.584 1001.25 939.053 820.007 1107.28C605.987 1305.93 736.83 1542.3 564.762 1632.97H564.753Z" stroke="#12274B" stroke-width="1.37" stroke-miterlimit="10"/>
</g>
<g style="mix-blend-mode:hard-light" opacity="0.12">
<path d="M576.106 1641.67C238.986 1786.43 -411.782 1541.48 -109.705 871.934C10.3763 605.769 628.143 227.228 723.633 494.511C818.455 759.032 1029.22 962.074 826.23 1120.71C587.243 1307.48 756.358 1564.27 576.106 1641.67Z" stroke="#12274B" stroke-width="1.37" stroke-miterlimit="10"/>
</g>
<g style="mix-blend-mode:hard-light" opacity="0.06">
<path d="M587.46 1650.37C261.25 1758.27 -402.397 1590.71 -120.691 870.066C-9.31891 585.142 657.373 222.866 741.167 505.654C824.253 785.481 1057.14 985.203 832.461 1134.14C568.449 1309.14 775.936 1588.02 587.46 1650.37Z" stroke="#12274B" stroke-width="1.37" stroke-miterlimit="10"/>
</g>
</g>
</g>
<g clip-path="url(#clip2_224_5384)">
<g opacity="0.8">
<path d="M707.194 -132.115C307.242 680.951 -195.015 -770.691 334.136 -753.917C599.116 -745.518 508.899 -1363.79 768.114 -1313.52C1027.33 -1263.25 934.185 -1007.01 1029.01 -719.311C1147.42 -360.029 810.55 -342.213 707.202 -132.115H707.194Z" stroke="#12274B" stroke-width="1.37" stroke-miterlimit="10"/>
<g style="mix-blend-mode:hard-light" opacity="0.94">
<path d="M718.547 -123.416C314.374 638.488 -189.543 -728.353 323.15 -755.786C577.869 -769.415 538.128 -1368.15 785.657 -1302.38C1033.13 -1236.8 961.746 -984.3 1035.24 -705.891C1128.18 -358.853 825.248 -324.555 718.547 -123.424V-123.416Z" stroke="#12274B" stroke-width="1.37" stroke-miterlimit="10"/>
</g>
<g style="mix-blend-mode:hard-light" opacity="0.88">
<path d="M729.9 -114.716C322.524 595.957 -184.971 -685.564 312.155 -757.654C556.222 -793.044 567.359 -1372.5 803.192 -1291.23C1038.93 -1210.35 988.299 -961.379 1041.47 -692.454C1107.7 -357.418 840.138 -307.023 729.9 -114.716Z" stroke="#12274B" stroke-width="1.37" stroke-miterlimit="10"/>
</g>
<g style="mix-blend-mode:hard-light" opacity="0.81">
<path d="M741.245 -106.017C331.842 553.436 -181.209 -642.075 301.169 -759.522C534.224 -816.265 596.597 -1376.86 820.727 -1280.08C1044.71 -1183.9 1015.38 -938.684 1047.69 -679.025C1087.87 -356.251 855.237 -289.632 741.245 -106.017Z" stroke="#12274B" stroke-width="1.37" stroke-miterlimit="10"/>
</g>
<g style="mix-blend-mode:hard-light" opacity="0.75">
<path d="M752.598 -97.3172C342.453 511.023 -178.048 -597.627 290.182 -761.391C512.002 -838.969 625.827 -1381.22 838.261 -1268.94C1050.51 -1157.46 1042.49 -916.072 1053.92 -665.596C1068.1 -355.183 870.603 -272.35 752.598 -97.3256V-97.3172Z" stroke="#12274B" stroke-width="1.37" stroke-miterlimit="10"/>
</g>
<g style="mix-blend-mode:hard-light" opacity="0.69">
<path d="M763.952 -88.6178C354.49 468.868 -175.153 -552.069 279.196 -763.259C489.679 -861.097 655.057 -1385.58 855.804 -1257.8C1056.31 -1131.01 1069.68 -893.543 1060.16 -652.167C1048.42 -354.215 886.269 -255.16 763.96 -88.6262L763.952 -88.6178Z" stroke="#12274B" stroke-width="1.37" stroke-miterlimit="10"/>
</g>
<g style="mix-blend-mode:hard-light" opacity="0.62">
<path d="M775.305 -79.9264C368.071 427.114 -172.183 -505.343 268.202 -765.127C467.406 -882.642 684.287 -1389.93 873.339 -1246.65C1062.1 -1104.56 1096.95 -871.081 1066.39 -638.738C1028.84 -353.331 902.26 -238.002 775.297 -79.9264H775.305Z" stroke="#12274B" stroke-width="1.37" stroke-miterlimit="10"/>
</g>
<g style="mix-blend-mode:hard-light" opacity="0.56">
<path d="M786.65 -71.2269C383.278 385.96 -168.772 -457.525 257.215 -766.996C445.358 -903.669 713.517 -1394.29 890.874 -1235.5C1067.9 -1078.1 1124.35 -848.653 1072.62 -625.301C1009.43 -352.497 918.635 -220.812 786.65 -71.2186V-71.2269Z" stroke="#12274B" stroke-width="1.37" stroke-miterlimit="10"/>
</g>
<g style="mix-blend-mode:hard-light" opacity="0.5">
<path d="M798.003 -62.5277C400.162 345.615 -164.651 -408.798 246.229 -768.864C423.619 -924.313 742.755 -1398.64 908.408 -1224.36C1073.69 -1051.66 1151.88 -826.241 1078.85 -611.873C990.192 -351.672 935.444 -203.521 798.003 -62.5277Z" stroke="#12274B" stroke-width="1.37" stroke-miterlimit="10"/>
</g>
<g style="mix-blend-mode:hard-light" opacity="0.44">
<path d="M809.357 -53.828C418.706 306.33 -159.637 -359.42 235.243 -770.732C402.247 -944.689 771.985 -1402.99 925.951 -1213.21C1079.48 -1025.21 1179.58 -803.796 1085.08 -598.444C971.131 -350.804 952.72 -185.997 809.357 -53.828Z" stroke="#12274B" stroke-width="1.37" stroke-miterlimit="10"/>
</g>
<g style="mix-blend-mode:hard-light" opacity="0.38">
<path d="M820.702 -45.1284C438.802 268.354 -153.681 -309.633 224.248 -772.601C381.251 -964.932 801.215 -1407.36 943.486 -1202.07C1085.28 -998.763 1207.38 -781.267 1091.31 -585.015C952.22 -349.845 970.497 -168.089 820.71 -45.1284H820.702Z" stroke="#12274B" stroke-width="1.37" stroke-miterlimit="10"/>
</g>
<g style="mix-blend-mode:hard-light" opacity="0.31">
<path d="M832.055 -36.4288C460.274 231.946 -146.807 -259.697 213.262 -774.461C360.621 -985.126 830.445 -1411.7 961.021 -1190.92C1091.07 -972.306 1235.29 -758.621 1097.54 -571.578C933.417 -348.735 988.782 -149.564 832.047 -36.4205L832.055 -36.4288Z" stroke="#12274B" stroke-width="1.37" stroke-miterlimit="10"/>
</g>
<g style="mix-blend-mode:hard-light" opacity="0.25">
<path d="M843.408 -27.7296C482.805 197.365 -139.108 -209.785 202.276 -776.329C340.301 -1005.39 859.683 -1416.06 978.564 -1179.78C1096.87 -945.865 1263.26 -735.851 1103.78 -558.149C914.698 -347.484 1007.59 -130.214 843.408 -27.7296Z" stroke="#12274B" stroke-width="1.37" stroke-miterlimit="10"/>
</g>
<g style="mix-blend-mode:hard-light" opacity="0.19">
<path d="M854.753 -19.0299C505.904 164.802 -130.724 -160.032 191.281 -778.198C320.23 -1025.75 888.905 -1420.42 996.098 -1168.63C1102.67 -919.416 1291.25 -712.947 1110.01 -544.72C895.987 -346.075 1026.83 -109.703 854.762 -19.0299H854.753Z" stroke="#12274B" stroke-width="1.37" stroke-miterlimit="10"/>
</g>
<g style="mix-blend-mode:hard-light" opacity="0.12">
<path d="M866.106 -10.3304C528.986 134.433 -121.782 -110.521 180.295 -780.066C300.376 -1046.23 918.143 -1424.77 1013.63 -1157.49C1108.46 -892.968 1319.22 -689.926 1116.23 -531.292C877.243 -344.523 1046.36 -87.7335 866.106 -10.3304Z" stroke="#12274B" stroke-width="1.37" stroke-miterlimit="10"/>
</g>
<g style="mix-blend-mode:hard-light" opacity="0.06">
<path d="M877.46 -1.63103C551.25 106.275 -112.397 -61.2931 169.309 -781.934C280.681 -1066.86 947.373 -1429.13 1031.17 -1146.35C1114.25 -866.519 1347.14 -666.797 1122.46 -517.863C858.449 -342.864 1065.94 -63.9789 877.46 -1.63103Z" stroke="#12274B" stroke-width="1.37" stroke-miterlimit="10"/>
</g>
<path opacity="0.4" d="M212.261 -91.6786C6.82516 -399.548 -200.229 -1161.53 627.962 -1214.23C954.138 -1234.98 1585.32 -617.903 1340.2 -412.284C1097.69 -208.842 1026.33 148.721 790.412 -55.0872C513.528 -294.278 339.533 99.0517 212.252 -91.6869L212.261 -91.6786Z" stroke="#12274B" stroke-width="1.37" stroke-miterlimit="10"/>
</g>
</g>
<g clip-path="url(#clip3_224_5384)">
<path d="M73.0857 282.918V300.869H80.7612C82.1696 300.869 83.4422 300.649 84.5848 300.23C85.7273 299.805 86.7059 299.2 87.526 298.413C88.3462 297.621 88.974 296.681 89.4152 295.578C89.8564 294.48 90.077 293.252 90.0826 291.894C90.0826 290.536 89.8564 289.308 89.4152 288.21C88.974 287.112 88.3462 286.167 87.526 285.374C86.7115 284.588 85.7273 283.982 84.5848 283.558C83.4422 283.133 82.1696 282.924 80.7612 282.918H73.0857ZM80.6707 286.88C81.5021 286.88 82.2318 287.01 82.8483 287.253C83.4649 287.497 83.9739 287.836 84.3868 288.289C84.7941 288.736 85.0995 289.262 85.3031 289.873C85.5067 290.485 85.6086 291.158 85.6086 291.894C85.6086 292.629 85.5067 293.292 85.3031 293.897C85.1052 294.508 84.7997 295.04 84.3868 295.487C83.9739 295.934 83.4649 296.28 82.8483 296.529C82.2318 296.778 81.5021 296.902 80.6707 296.902H77.3618V286.874H80.6707V286.88ZM92.594 282.918V300.869H96.8757V294.152H97.5036L102.232 300.869H107.334L102.181 294.022C103.256 293.846 104.161 293.518 104.913 293.037C105.654 292.556 106.22 291.945 106.61 291.198C107 290.456 107.193 289.613 107.198 288.657C107.198 287.474 106.938 286.45 106.418 285.595C105.903 284.735 105.139 284.078 104.133 283.614C103.126 283.15 101.881 282.913 100.405 282.907H92.5996L92.594 282.918ZM100.343 286.806C100.852 286.806 101.288 286.868 101.661 287.004C102.034 287.134 102.317 287.344 102.526 287.615C102.73 287.893 102.832 288.238 102.832 288.662C102.832 289.093 102.73 289.443 102.526 289.721C102.328 289.998 102.046 290.207 101.672 290.338C101.299 290.473 100.858 290.541 100.343 290.541H96.8701V286.795H100.343V286.806ZM114.133 282.918H109.851V300.869H114.133V282.918ZM134.28 282.918H129.823L125.134 296.461L120.468 282.918H115.92L122.561 300.869H127.663L134.286 282.918H134.28ZM140.344 282.918H136.062V300.869H140.344V282.918ZM160.169 282.918H155.876V293.869L147.697 282.918H143.596V300.869H147.878V289.919L156.057 300.869H160.169V282.918ZM172.228 282.584C170.825 282.59 169.541 282.816 168.376 283.275C167.216 283.728 166.204 284.367 165.356 285.199C164.507 286.031 163.845 287.01 163.382 288.142C162.918 289.274 162.68 290.524 162.675 291.894C162.675 293.02 162.839 294.056 163.15 295.012C163.466 295.963 163.908 296.823 164.484 297.587C165.061 298.345 165.74 298.996 166.532 299.534C167.324 300.066 168.195 300.479 169.145 300.767C170.101 301.05 171.114 301.192 172.188 301.192C173.116 301.192 174.01 301.062 174.869 300.796C175.729 300.535 176.521 300.145 177.251 299.636C177.98 299.126 178.619 298.504 179.162 297.762C179.711 297.027 180.13 296.183 180.435 295.227C180.74 294.276 180.899 293.224 180.899 292.075C180.899 291.86 180.888 291.639 180.876 291.418C180.865 291.198 180.837 290.966 180.808 290.728H172.194V294.039H176.566C176.317 295.097 175.82 295.906 175.067 296.455C174.315 297.004 173.303 297.281 172.03 297.287C171.357 297.287 170.729 297.168 170.135 296.93C169.541 296.693 169.015 296.348 168.557 295.889C168.099 295.425 167.742 294.865 167.482 294.197C167.222 293.529 167.092 292.765 167.086 291.899C167.086 291.113 167.211 290.4 167.454 289.755C167.692 289.109 168.037 288.555 168.478 288.085C168.925 287.615 169.439 287.259 170.039 286.999C170.644 286.744 171.3 286.619 172.019 286.614C172.85 286.614 173.585 286.761 174.225 287.044C174.864 287.327 175.401 287.706 175.853 288.193L178.902 285.193C178.116 284.373 177.166 283.733 176.046 283.281C174.926 282.828 173.653 282.596 172.228 282.59V282.584ZM189.168 282.918V300.869H196.844C198.252 300.869 199.525 300.649 200.667 300.23C201.81 299.805 202.788 299.2 203.609 298.413C204.429 297.621 205.057 296.681 205.498 295.578C205.939 294.48 206.16 293.252 206.165 291.894C206.165 290.536 205.939 289.308 205.498 288.21C205.057 287.112 204.429 286.167 203.609 285.374C202.794 284.588 201.81 283.982 200.667 283.558C199.525 283.133 198.252 282.924 196.844 282.918H189.168ZM196.753 286.88C197.585 286.88 198.314 287.01 198.931 287.253C199.547 287.497 200.056 287.836 200.469 288.289C200.877 288.736 201.182 289.262 201.386 289.873C201.589 290.485 201.691 291.158 201.691 291.894C201.691 292.629 201.589 293.292 201.386 293.897C201.188 294.508 200.882 295.04 200.469 295.487C200.056 295.934 199.547 296.28 198.931 296.529C198.309 296.778 197.585 296.902 196.753 296.902H193.444V286.874H196.753V286.88ZM212.953 282.918H208.671V300.869H212.953V282.918ZM225.012 282.584C223.609 282.59 222.325 282.816 221.165 283.275C220.006 283.728 218.993 284.367 218.145 285.199C217.297 286.031 216.635 287.01 216.171 288.142C215.707 289.274 215.47 290.524 215.464 291.894C215.464 293.02 215.628 294.056 215.939 295.012C216.256 295.963 216.697 296.823 217.274 297.587C217.851 298.345 218.53 298.996 219.322 299.534C220.113 300.066 220.984 300.479 221.935 300.767C222.891 301.05 223.903 301.192 224.978 301.192C225.905 301.192 226.799 301.062 227.653 300.796C228.513 300.535 229.305 300.145 230.034 299.636C230.764 299.126 231.403 298.504 231.946 297.762C232.495 297.027 232.913 296.183 233.219 295.227C233.524 294.276 233.683 293.224 233.683 292.075C233.683 291.86 233.671 291.639 233.66 291.418C233.649 291.198 233.62 290.966 233.592 290.728H224.978V294.039H229.35C229.101 295.097 228.603 295.906 227.851 296.455C227.099 297.004 226.086 297.281 224.814 297.287C224.141 297.287 223.513 297.168 222.919 296.93C222.325 296.693 221.799 296.348 221.341 295.889C220.883 295.425 220.526 294.865 220.266 294.197C220.006 293.529 219.876 292.765 219.87 291.899C219.87 291.113 219.995 290.4 220.238 289.755C220.475 289.109 220.82 288.555 221.262 288.085C221.708 287.615 222.223 287.259 222.823 286.999C223.428 286.744 224.084 286.619 224.802 286.614C225.634 286.614 226.369 286.761 227.008 287.044C227.647 287.327 228.185 287.706 228.637 288.193L231.686 285.193C230.9 284.373 229.95 283.733 228.83 283.281C227.71 282.828 226.437 282.596 225.012 282.59V282.584ZM240.481 282.918H236.2V300.869H240.481V282.918ZM257.337 282.918H242.433V286.891H247.75V300.869H252.031V286.891H257.337V282.918ZM267.88 282.918H262.767L255.883 300.869H260.357L261.715 297.1H268.842L270.199 300.869H274.764L267.88 282.918ZM265.278 287.174L267.456 293.224H263.101L265.278 287.174ZM289.849 296.897H280.827V282.918H276.545V300.869H289.849V296.897ZM310.568 282.918H295.663V286.891H300.98V300.869H305.262V286.891H310.568V282.918ZM312.519 282.918V300.869H316.801V294.152H317.429L322.157 300.869H327.259L322.106 294.022C323.181 293.846 324.086 293.518 324.838 293.037C325.579 292.556 326.145 291.945 326.535 291.198C326.925 290.456 327.118 289.613 327.123 288.657C327.123 287.474 326.863 286.45 326.343 285.595C325.828 284.735 325.064 284.078 324.058 283.614C323.051 283.15 321.807 282.913 320.33 282.907H312.525L312.519 282.918ZM320.274 286.806C320.783 286.806 321.218 286.868 321.592 287.004C321.965 287.134 322.248 287.344 322.457 287.615C322.661 287.893 322.762 288.238 322.762 288.662C322.762 289.093 322.661 289.443 322.457 289.721C322.259 289.998 321.976 290.207 321.603 290.338C321.23 290.473 320.788 290.541 320.274 290.541H316.801V286.795H320.274V286.806ZM340.031 282.918H334.918L328.034 300.869H332.508L333.866 297.1H340.992L342.35 300.869H346.914L340.031 282.918ZM337.429 287.174L339.607 293.224H335.251L337.429 287.174ZM365.269 282.918H360.976V293.869L352.803 282.918H348.702V300.869H352.984V289.919L361.162 300.869H365.275V282.918H365.269ZM383.041 284.497C382.141 283.999 381.293 283.614 380.495 283.337C379.698 283.06 378.917 282.867 378.148 282.754C377.385 282.641 376.604 282.59 375.801 282.596C374.749 282.596 373.787 282.732 372.91 282.992C372.034 283.258 371.276 283.637 370.637 284.135C369.992 284.633 369.494 285.227 369.138 285.929C368.781 286.625 368.589 287.412 368.566 288.289C368.55 289.364 368.753 290.27 369.177 291.017C369.602 291.758 370.235 292.358 371.078 292.811C371.921 293.258 372.956 293.58 374.194 293.767L375.094 293.908C375.874 294.022 376.53 294.146 377.056 294.282C377.588 294.412 377.978 294.588 378.25 294.803C378.516 295.018 378.646 295.301 378.646 295.652C378.646 296.025 378.516 296.331 378.267 296.58C378.018 296.829 377.684 297.01 377.26 297.134C376.83 297.259 376.344 297.315 375.801 297.315C374.958 297.315 374.189 297.219 373.482 297.032C372.775 296.851 372.136 296.619 371.559 296.336C370.982 296.048 370.467 295.748 370.009 295.431L367.871 298.917C368.538 299.415 369.29 299.834 370.133 300.173C370.982 300.513 371.875 300.767 372.831 300.943C373.781 301.113 374.76 301.197 375.761 301.197C376.536 301.197 377.288 301.124 378.024 300.982C378.753 300.835 379.438 300.603 380.077 300.298C380.71 299.992 381.27 299.602 381.745 299.121C382.226 298.64 382.605 298.074 382.871 297.417C383.143 296.761 383.284 296.002 383.284 295.148C383.284 294.169 383.046 293.337 382.588 292.641C382.124 291.945 381.474 291.373 380.625 290.937C379.783 290.502 378.77 290.185 377.605 289.987L376.864 289.857C376.366 289.772 375.891 289.687 375.45 289.596C375.003 289.506 374.613 289.404 374.274 289.279C373.934 289.155 373.663 288.996 373.47 288.815C373.272 288.628 373.176 288.391 373.171 288.113C373.171 287.757 373.301 287.457 373.538 287.219C373.781 286.982 374.115 286.801 374.534 286.682C374.958 286.557 375.444 286.495 375.993 286.495C376.694 286.495 377.356 286.574 377.973 286.716C378.595 286.857 379.166 287.044 379.692 287.27C380.224 287.502 380.699 287.746 381.129 288.006L383.041 284.492V284.497ZM398.833 290.139H390.168V286.778H399.444V282.918H385.886V300.869H390.168V294.01H398.833V290.139ZM410.632 282.584C409.246 282.59 407.973 282.822 406.819 283.286C405.671 283.75 404.67 284.395 403.827 285.233C402.985 286.065 402.334 287.05 401.876 288.181C401.412 289.308 401.18 290.547 401.175 291.894C401.175 293.241 401.412 294.48 401.876 295.606C402.334 296.738 402.985 297.723 403.827 298.555C404.67 299.392 405.671 300.037 406.819 300.501C407.973 300.965 409.246 301.192 410.632 301.203C412.018 301.197 413.296 300.965 414.444 300.501C415.592 300.037 416.593 299.392 417.436 298.555C418.279 297.723 418.929 296.738 419.388 295.606C419.851 294.48 420.078 293.241 420.089 291.894C420.083 290.547 419.851 289.308 419.388 288.181C418.924 287.05 418.279 286.065 417.436 285.233C416.593 284.395 415.592 283.75 414.444 283.286C413.29 282.822 412.018 282.596 410.632 282.584ZM410.632 286.687C411.367 286.687 412.04 286.818 412.645 287.067C413.256 287.321 413.782 287.672 414.229 288.136C414.676 288.6 415.015 289.143 415.259 289.783C415.502 290.417 415.626 291.118 415.632 291.894C415.632 292.669 415.502 293.371 415.259 294.005C415.015 294.644 414.676 295.187 414.229 295.652C413.782 296.116 413.256 296.466 412.645 296.721C412.04 296.976 411.367 297.095 410.632 297.1C409.896 297.1 409.229 296.97 408.618 296.721C408.007 296.466 407.481 296.116 407.034 295.652C406.588 295.187 406.248 294.644 406.005 294.005C405.762 293.371 405.637 292.669 405.632 291.894C405.632 291.118 405.762 290.417 406.005 289.783C406.248 289.143 406.588 288.6 407.034 288.136C407.481 287.672 408.007 287.321 408.618 287.067C409.223 286.812 409.896 286.693 410.632 286.687ZM422.6 282.918V300.869H426.882V294.152H427.51L432.238 300.869H437.34L432.188 294.022C433.262 293.846 434.167 293.518 434.92 293.037C435.661 292.556 436.226 291.945 436.616 291.198C437.007 290.456 437.199 289.613 437.199 288.657C437.199 287.474 436.939 286.45 436.424 285.595C435.909 284.735 435.146 284.078 434.139 283.614C433.132 283.15 431.888 282.913 430.412 282.907H422.606L422.6 282.918ZM430.355 286.806C430.864 286.806 431.3 286.868 431.673 287.004C432.046 287.134 432.329 287.344 432.538 287.615C432.742 287.893 432.844 288.238 432.844 288.662C432.844 289.093 432.742 289.443 432.538 289.721C432.34 289.998 432.057 290.207 431.684 290.338C431.311 290.473 430.87 290.541 430.355 290.541H426.882V286.795H430.355V286.806ZM460.152 282.918H454.077L450.016 294.316L445.927 282.918H439.863V300.869H444.145V288.623L447.731 299.177H452.278L455.864 288.589V300.869H460.146V282.918H460.152ZM473.93 282.918H468.817L461.934 300.869H466.408L467.765 297.1H474.892L476.249 300.869H480.814L473.93 282.918ZM471.329 287.174L473.506 293.224H469.151L471.329 287.174ZM494.265 282.918H479.36V286.891H484.677V300.869H488.959V286.891H494.265V282.918ZM500.498 282.918H496.216V300.869H500.498V282.918ZM512.466 282.584C511.08 282.59 509.808 282.822 508.654 283.286C507.506 283.75 506.505 284.395 505.662 285.233C504.819 286.065 504.169 287.05 503.71 288.181C503.247 289.308 503.015 290.547 503.009 291.894C503.009 293.241 503.247 294.48 503.71 295.606C504.169 296.738 504.819 297.723 505.662 298.555C506.505 299.392 507.506 300.037 508.654 300.501C509.808 300.965 511.08 301.192 512.466 301.203C513.852 301.197 515.13 300.965 516.279 300.501C517.427 300.037 518.428 299.392 519.271 298.555C520.113 297.723 520.764 296.738 521.222 295.606C521.686 294.48 521.912 293.241 521.923 291.894C521.918 290.547 521.686 289.308 521.222 288.181C520.758 287.05 520.113 286.065 519.271 285.233C518.428 284.395 517.427 283.75 516.279 283.286C515.125 282.822 513.852 282.596 512.466 282.584ZM512.466 286.687C513.202 286.687 513.875 286.818 514.48 287.067C515.091 287.321 515.617 287.672 516.064 288.136C516.51 288.6 516.85 289.143 517.093 289.783C517.336 290.417 517.461 291.118 517.466 291.894C517.466 292.669 517.336 293.371 517.093 294.005C516.85 294.644 516.51 295.187 516.064 295.652C515.617 296.116 515.091 296.466 514.48 296.721C513.875 296.976 513.202 297.095 512.466 297.1C511.731 297.1 511.064 296.97 510.453 296.721C509.842 296.466 509.316 296.116 508.869 295.652C508.422 295.187 508.083 294.644 507.839 294.005C507.596 293.371 507.472 292.669 507.466 291.894C507.466 291.118 507.596 290.417 507.839 289.783C508.083 289.143 508.428 288.6 508.869 288.136C509.316 287.672 509.842 287.321 510.453 287.067C511.058 286.812 511.731 286.693 512.466 286.687ZM541.008 282.918H536.714V293.869L528.536 282.918H524.435V300.869H528.717V289.919L536.895 300.869H541.008V282.918Z" fill="#12274B"/>
<path fill-rule="evenodd" clip-rule="evenodd" d="M240.323 229.382C247.715 229.382 253.705 235.375 253.705 242.772C253.705 250.169 247.715 256.162 240.323 256.162C232.93 256.162 226.94 250.169 226.94 242.772C226.94 235.375 232.93 229.382 240.323 229.382ZM283.632 195.014H260.696V176.52H326.535V195.014H303.599V254.679H283.632V195.014ZM350.579 236.185H385.925V254.679H330.613V176.52H385.925V195.014H350.579V206.893H383.091V225.387H350.579V236.185ZM450.717 223.899H471.9C470.932 228.556 469.247 232.829 466.82 236.745C464.416 240.661 461.402 244.057 457.827 246.96C454.23 249.863 450.18 252.11 445.706 253.706C441.209 255.324 436.396 256.133 431.294 256.156C425.445 256.111 420.026 255.075 415.038 253.004C410.021 250.933 405.637 248.058 401.881 244.362C398.126 240.672 395.179 236.377 393.092 231.493C390.976 226.609 389.918 221.324 389.879 215.653C389.924 209.983 390.982 204.697 393.092 199.813C395.184 194.929 398.126 190.634 401.881 186.944C405.637 183.254 410.021 180.374 415.038 178.303C420.032 176.231 425.451 175.196 431.294 175.151C436.396 175.173 441.209 175.982 445.706 177.578C450.18 179.152 454.23 181.404 457.827 184.284C461.402 187.188 464.416 190.583 466.82 194.522C469.247 198.438 470.938 202.733 471.9 207.413H450.717C449.659 204.691 448.177 202.309 446.288 200.238C444.376 198.189 442.154 196.57 439.586 195.422C437.046 194.25 434.28 193.667 431.288 193.645C428.364 193.667 425.643 194.228 423.126 195.376C420.609 196.503 418.38 198.076 416.469 200.079C414.58 202.105 413.075 204.42 412.017 207.074C410.937 209.728 410.4 212.586 410.377 215.648C410.4 218.709 410.937 221.561 412.017 224.221C413.075 226.853 414.58 229.196 416.469 231.216C418.38 233.219 420.603 234.793 423.126 235.919C425.643 237.068 428.364 237.628 431.288 237.65C434.28 237.628 437.046 237.022 439.586 235.851C442.148 234.679 444.376 233.061 446.288 230.99C448.177 228.918 449.659 226.558 450.717 223.882V223.899ZM521.035 254.679V228.494H495.537V254.679H475.57V176.52H495.537V209.858H521.035V176.52H541.002V254.679H521.035ZM220.011 206.587C220.011 238.205 196.589 256.167 170.367 256.167C138.364 256.167 138.765 223.797 142.436 210.815C144.789 225.789 156.503 235.919 170.367 235.919C185.927 235.919 198.54 222.637 198.54 206.587C198.54 190.538 190.152 179.989 178.613 175.982C177.092 176.356 175.52 176.628 173.919 176.797C148.579 181.013 130.994 202.439 126.384 256.167H102.928L65.5231 169.684C60.9302 157.341 53.1473 147.398 43 139.22C63.4868 139.22 75.676 138.92 88.0461 167.516L107.079 211.528L106.022 246.032L110.349 219.071C117.362 191.064 131.135 161.636 167.816 156.277C149.767 158.807 134.455 156.577 134.455 139.486C134.45 118.779 150.53 102 170.367 102C190.203 102 206.278 118.779 206.278 139.486C206.278 149.441 202.568 158.484 196.504 165.19C192.335 168.733 187.663 172.027 181.713 174.675C187.443 173.945 193.342 170.782 199.298 166.928C210.865 174.851 220.006 190.56 220.006 206.587H220.011ZM184.948 146.855C185.984 144.631 186.56 142.129 186.56 139.486C186.56 130.143 179.309 122.571 170.361 122.571C161.413 122.571 154.15 130.149 154.15 139.486C154.15 148.02 160.208 155.083 168.082 156.238C173.076 155.36 179.468 155.689 184.943 146.855H184.948Z" fill="#12274B"/>
</g>
<g clip-path="url(#clip4_224_5384)">
<path d="M577.022 129.401H678V230.443H577.022V129.401Z" fill="#E60000"/>
<path d="M577.022 230.443H678V274.168L627.806 300.758L577.022 274.168" fill="#002171"/>
<path d="M588.163 268.259V262.055H590.046L591.171 266.284L592.278 262.055H594.161V268.259H592.998V263.375L591.762 268.259H590.562L589.335 263.375V268.259H588.163ZM596.283 265.139L595.203 264.945C595.319 264.509 595.526 264.186 595.822 263.976C596.121 263.768 596.564 263.662 597.15 263.662C597.678 263.662 598.073 263.726 598.331 263.855C598.59 263.98 598.77 264.139 598.876 264.336C598.986 264.527 599.042 264.88 599.042 265.397L599.023 266.782C599.023 267.177 599.042 267.47 599.079 267.659C599.12 267.844 599.194 268.045 599.3 268.259H598.119C598.087 268.181 598.05 268.063 598.008 267.909C597.99 267.835 597.974 267.789 597.962 267.77C597.759 267.969 597.54 268.116 597.307 268.213C597.079 268.31 596.832 268.361 596.569 268.361C596.108 268.361 595.741 268.236 595.471 267.982C595.206 267.731 595.074 267.415 595.074 267.031C595.074 266.78 595.134 266.556 595.259 266.358C595.381 266.154 595.549 266.002 595.766 265.896C595.988 265.792 596.304 265.7 596.717 265.619C597.27 265.515 597.653 265.416 597.87 265.323V265.203C597.87 264.977 597.81 264.816 597.695 264.723C597.584 264.626 597.374 264.576 597.067 264.576C596.85 264.576 596.684 264.619 596.569 264.705C596.451 264.786 596.357 264.931 596.283 265.139ZM597.87 266.099C597.715 266.15 597.473 266.21 597.141 266.284C596.813 266.353 596.601 266.42 596.504 266.487C596.343 266.598 596.264 266.741 596.264 266.911C596.264 267.078 596.324 267.223 596.449 267.345C596.578 267.463 596.737 267.521 596.929 267.521C597.143 267.521 597.346 267.452 597.538 267.308C597.685 267.205 597.78 267.075 597.824 266.921C597.854 266.817 597.87 266.623 597.87 266.339V266.099ZM600.204 263.154V262.055H601.395V263.154H600.204ZM600.204 268.259V263.763H601.395V268.259H600.204ZM601.98 268.361L603.512 261.944H604.407L602.857 268.361H601.98ZM608.781 267.152V268.259H604.61C604.659 267.842 604.795 267.447 605.016 267.078C605.242 266.704 605.69 266.205 606.354 265.582C606.889 265.083 607.217 264.746 607.341 264.566C607.507 264.322 607.59 264.077 607.59 263.837C607.59 263.574 607.517 263.371 607.369 263.228C607.226 263.087 607.032 263.015 606.788 263.015C606.534 263.015 606.336 263.094 606.188 263.246C606.045 263.394 605.962 263.641 605.939 263.985L604.758 263.865C604.825 263.214 605.044 262.745 605.413 262.461C605.787 262.173 606.255 262.027 606.815 262.027C607.424 262.027 607.904 262.194 608.255 262.526C608.605 262.854 608.781 263.262 608.781 263.754C608.781 264.038 608.728 264.306 608.624 264.557C608.525 264.811 608.368 265.074 608.153 265.351C608.01 265.531 607.752 265.792 607.378 266.136C607.002 266.482 606.762 266.713 606.658 266.828C606.559 266.939 606.479 267.048 606.419 267.152H608.781ZM611.595 262.027C612.19 262.027 612.658 262.244 612.997 262.674C613.403 263.179 613.606 264.022 613.606 265.203C613.606 266.374 613.403 267.216 612.997 267.733C612.658 268.153 612.19 268.361 611.595 268.361C610.99 268.361 610.501 268.13 610.128 267.669C609.759 267.207 609.574 266.381 609.574 265.185C609.574 264.017 609.777 263.177 610.183 262.664C610.52 262.24 610.99 262.027 611.595 262.027ZM611.595 263.015C611.447 263.015 611.318 263.061 611.207 263.154C611.097 263.246 611.009 263.41 610.949 263.643C610.861 263.952 610.82 264.472 610.82 265.203C610.82 265.931 610.857 266.429 610.93 266.699C611.004 266.971 611.097 267.152 611.207 267.244C611.318 267.336 611.447 267.382 611.595 267.382C611.736 267.382 611.862 267.336 611.973 267.244C612.088 267.152 612.178 266.985 612.241 266.745C612.319 266.445 612.361 265.931 612.361 265.203C612.361 264.472 612.324 263.971 612.25 263.699C612.176 263.428 612.084 263.246 611.973 263.154C611.862 263.061 611.736 263.015 611.595 263.015ZM618.413 267.152V268.259H614.243C614.291 267.842 614.427 267.447 614.649 267.078C614.875 266.704 615.322 266.205 615.987 265.582C616.522 265.083 616.849 264.746 616.974 264.566C617.14 264.322 617.223 264.077 617.223 263.837C617.223 263.574 617.149 263.371 617.002 263.228C616.859 263.087 616.665 263.015 616.42 263.015C616.167 263.015 615.968 263.094 615.821 263.246C615.678 263.394 615.595 263.641 615.572 263.985L614.391 263.865C614.457 263.214 614.677 262.745 615.046 262.461C615.419 262.173 615.888 262.027 616.448 262.027C617.057 262.027 617.537 262.194 617.887 262.526C618.238 262.854 618.413 263.262 618.413 263.754C618.413 264.038 618.36 264.306 618.257 264.557C618.157 264.811 618.001 265.074 617.786 265.351C617.643 265.531 617.385 265.792 617.011 266.136C616.635 266.482 616.395 266.713 616.291 266.828C616.192 266.939 616.111 267.048 616.051 267.152H618.413ZM619.235 266.662L620.416 266.542C620.453 266.808 620.554 267.02 620.72 267.179C620.886 267.334 621.075 267.41 621.292 267.41C621.537 267.41 621.747 267.313 621.92 267.115C622.09 266.911 622.178 266.607 622.178 266.201C622.178 265.82 622.09 265.534 621.92 265.342C621.754 265.153 621.532 265.056 621.255 265.056C620.916 265.056 620.612 265.208 620.342 265.508L619.373 265.37L619.982 262.138H623.128V263.255H620.886L620.702 264.308C620.965 264.174 621.237 264.105 621.514 264.105C622.042 264.105 622.487 264.299 622.851 264.686C623.221 265.07 623.405 265.564 623.405 266.173C623.405 266.685 623.257 267.142 622.962 267.549C622.556 268.091 621.996 268.361 621.283 268.361C620.711 268.361 620.243 268.211 619.88 267.909C619.516 267.602 619.301 267.186 619.235 266.662ZM626.556 266.607V265.416H628.89V266.607H626.556ZM631.968 268.259V262.055H633.85L634.976 266.284L636.083 262.055H637.965V268.259H636.802V263.375L635.566 268.259H634.367L633.139 263.375V268.259H631.968ZM640.085 265.139L639.005 264.945C639.121 264.509 639.328 264.186 639.624 263.976C639.923 263.768 640.366 263.662 640.952 263.662C641.48 263.662 641.875 263.726 642.133 263.855C642.392 263.98 642.571 264.139 642.678 264.336C642.788 264.527 642.844 264.88 642.844 265.397L642.825 266.782C642.825 267.177 642.844 267.47 642.881 267.659C642.922 267.844 642.996 268.045 643.102 268.259H641.921C641.889 268.181 641.852 268.063 641.81 267.909C641.792 267.835 641.776 267.789 641.764 267.77C641.561 267.969 641.342 268.116 641.109 268.213C640.881 268.31 640.634 268.361 640.371 268.361C639.91 268.361 639.543 268.236 639.273 267.982C639.008 267.731 638.876 267.415 638.876 267.031C638.876 266.78 638.936 266.556 639.061 266.358C639.183 266.154 639.351 266.002 639.568 265.896C639.79 265.792 640.106 265.7 640.519 265.619C641.072 265.515 641.455 265.416 641.672 265.323V265.203C641.672 264.977 641.612 264.816 641.497 264.723C641.386 264.626 641.176 264.576 640.869 264.576C640.652 264.576 640.486 264.619 640.371 264.705C640.253 264.786 640.159 264.931 640.085 265.139ZM641.672 266.099C641.517 266.15 641.275 266.21 640.943 266.284C640.615 266.353 640.403 266.42 640.306 266.487C640.145 266.598 640.066 266.741 640.066 266.911C640.066 267.078 640.126 267.223 640.251 267.345C640.38 267.463 640.539 267.521 640.731 267.521C640.945 267.521 641.148 267.452 641.34 267.308C641.487 267.205 641.582 267.075 641.626 266.921C641.656 266.817 641.672 266.623 641.672 266.339V266.099ZM644.006 263.154V262.055H645.197V263.154H644.006ZM644.006 268.259V263.763H645.197V268.259H644.006ZM645.785 268.361L647.316 261.944H648.211L646.661 268.361H645.785ZM652.583 267.152V268.259H648.412C648.46 267.842 648.597 267.447 648.818 267.078C649.044 266.704 649.492 266.205 650.156 265.582C650.691 265.083 651.019 264.746 651.143 264.566C651.309 264.322 651.392 264.077 651.392 263.837C651.392 263.574 651.318 263.371 651.171 263.228C651.028 263.087 650.834 263.015 650.59 263.015C650.336 263.015 650.137 263.094 649.99 263.246C649.847 263.394 649.764 263.641 649.741 263.985L648.56 263.865C648.627 263.214 648.846 262.745 649.215 262.461C649.588 262.173 650.057 262.027 650.617 262.027C651.226 262.027 651.706 262.194 652.057 262.526C652.407 262.854 652.583 263.262 652.583 263.754C652.583 264.038 652.53 264.306 652.426 264.557C652.327 264.811 652.17 265.074 651.955 265.351C651.812 265.531 651.554 265.792 651.18 266.136C650.804 266.482 650.564 266.713 650.46 266.828C650.361 266.939 650.28 267.048 650.221 267.152H652.583ZM655.397 262.027C655.992 262.027 656.46 262.244 656.799 262.674C657.205 263.179 657.408 264.022 657.408 265.203C657.408 266.374 657.205 267.216 656.799 267.733C656.46 268.153 655.992 268.361 655.397 268.361C654.792 268.361 654.303 268.13 653.93 267.669C653.561 267.207 653.376 266.381 653.376 265.185C653.376 264.017 653.579 263.177 653.985 262.664C654.322 262.24 654.792 262.027 655.397 262.027ZM655.397 263.015C655.249 263.015 655.12 263.061 655.009 263.154C654.898 263.246 654.811 263.41 654.751 263.643C654.663 263.952 654.622 264.472 654.622 265.203C654.622 265.931 654.659 266.429 654.732 266.699C654.806 266.971 654.898 267.152 655.009 267.244C655.12 267.336 655.249 267.382 655.397 267.382C655.537 267.382 655.664 267.336 655.775 267.244C655.89 267.152 655.98 266.985 656.043 266.745C656.121 266.445 656.163 265.931 656.163 265.203C656.163 264.472 656.126 263.971 656.052 263.699C655.978 263.428 655.886 263.246 655.775 263.154C655.664 263.061 655.537 263.015 655.397 263.015ZM662.215 267.152V268.259H658.045C658.093 267.842 658.229 267.447 658.451 267.078C658.677 266.704 659.124 266.205 659.789 265.582C660.324 265.083 660.651 264.746 660.776 264.566C660.942 264.322 661.025 264.077 661.025 263.837C661.025 263.574 660.951 263.371 660.804 263.228C660.661 263.087 660.467 263.015 660.222 263.015C659.969 263.015 659.77 263.094 659.623 263.246C659.48 263.394 659.397 263.641 659.373 263.985L658.192 263.865C658.259 263.214 658.478 262.745 658.848 262.461C659.221 262.173 659.69 262.027 660.25 262.027C660.859 262.027 661.339 262.194 661.689 262.526C662.04 262.854 662.215 263.262 662.215 263.754C662.215 264.038 662.162 264.306 662.058 264.557C661.959 264.811 661.802 265.074 661.588 265.351C661.445 265.531 661.187 265.792 660.813 266.136C660.437 266.482 660.197 266.713 660.093 266.828C659.994 266.939 659.913 267.048 659.853 267.152H662.215ZM667.041 263.569L665.897 263.699C665.865 263.465 665.791 263.292 665.675 263.182C665.558 263.066 665.403 263.006 665.214 263.006C664.96 263.006 664.748 263.121 664.577 263.348C664.404 263.569 664.294 264.038 664.245 264.751C664.541 264.407 664.91 264.234 665.352 264.234C665.851 264.234 666.275 264.423 666.626 264.797C666.981 265.173 667.161 265.663 667.161 266.265C667.161 266.9 666.972 267.408 666.598 267.789C666.229 268.172 665.752 268.361 665.168 268.361C664.541 268.361 664.024 268.119 663.618 267.632C663.216 267.147 663.018 266.348 663.018 265.24C663.018 264.102 663.226 263.283 663.646 262.785C664.07 262.281 664.617 262.027 665.288 262.027C665.754 262.027 666.141 262.161 666.45 262.424C666.764 262.69 666.96 263.071 667.041 263.569ZM664.347 266.173C664.347 266.556 664.434 266.854 664.614 267.068C664.792 267.278 664.995 267.382 665.223 267.382C665.445 267.382 665.629 267.297 665.777 267.124C665.925 266.953 665.998 266.669 665.998 266.274C665.998 265.868 665.918 265.573 665.758 265.388C665.597 265.199 665.401 265.102 665.168 265.102C664.94 265.102 664.746 265.194 664.587 265.379C664.425 265.559 664.347 265.822 664.347 266.173Z" fill="white"/>
<path d="M602.617 145.254V146.629C602.617 149.173 601.8 151.232 600.172 152.806C598.548 154.383 596.449 155.17 593.879 155.17C591.134 155.17 588.862 154.279 587.061 152.492C585.257 150.701 584.357 148.52 584.357 145.946C584.357 143.35 585.248 141.155 587.033 139.363C588.816 137.568 591.03 136.667 593.676 136.667C595.33 136.667 596.843 137.046 598.216 137.803C599.586 138.556 600.654 139.557 601.418 140.813L598.419 142.539C597.999 141.808 597.362 141.215 596.509 140.758C595.653 140.303 594.7 140.074 593.649 140.074C591.955 140.074 590.562 140.628 589.469 141.736C588.38 142.844 587.836 144.247 587.836 145.946C587.836 147.622 588.389 149.007 589.497 150.101C590.604 151.19 592.073 151.735 593.907 151.735C595.259 151.735 596.38 151.437 597.265 150.84C598.156 150.237 598.763 149.408 599.083 148.356H593.704V145.254H602.617Z" fill="white"/>
<path d="M607.775 144.056C608.082 143.243 608.587 142.634 609.288 142.228C609.989 141.817 610.774 141.609 611.641 141.609V145.274C610.638 145.159 609.743 145.362 608.956 145.884C608.167 146.408 607.775 147.278 607.775 148.497V154.572H604.5V141.868H607.775V144.056Z" fill="white"/>
<path d="M616.481 149.568C616.923 151.163 618.116 151.959 620.061 151.959C621.315 151.959 622.266 151.534 622.912 150.685L625.55 152.208C624.296 154.025 622.45 154.932 620.014 154.932C617.915 154.932 616.231 154.299 614.958 153.03C613.689 151.756 613.057 150.154 613.057 148.22C613.057 146.306 613.68 144.709 614.93 143.428C616.185 142.149 617.793 141.508 619.756 141.508C621.62 141.508 623.156 142.154 624.369 143.446C625.58 144.734 626.187 146.325 626.187 148.22C626.187 148.644 626.143 149.094 626.058 149.568H616.481ZM616.434 147.029H622.912C622.72 146.161 622.333 145.519 621.749 145.099C621.163 144.674 620.499 144.462 619.756 144.462C618.875 144.462 618.146 144.688 617.569 145.136C616.997 145.586 616.619 146.216 616.434 147.029Z" fill="white"/>
<path d="M637.831 141.868H641.107V154.572H637.831V153.076C636.853 154.313 635.474 154.932 633.698 154.932C632 154.932 630.544 154.283 629.333 152.984C628.127 151.687 627.525 150.098 627.525 148.22C627.525 146.343 628.127 144.755 629.333 143.456C630.544 142.158 632 141.508 633.698 141.508C635.474 141.508 636.853 142.126 637.831 143.363V141.868ZM631.788 150.805C632.445 151.47 633.282 151.802 634.297 151.802C635.317 151.802 636.161 151.47 636.826 150.805C637.494 150.135 637.831 149.272 637.831 148.22C637.831 147.167 637.494 146.309 636.826 145.644C636.161 144.974 635.317 144.637 634.297 144.637C633.282 144.637 632.445 144.974 631.788 145.644C631.128 146.309 630.8 147.167 630.8 148.22C630.8 149.272 631.128 150.135 631.788 150.805Z" fill="white"/>
<path d="M651.916 145.016H649.046V150.306C649.046 150.745 649.157 151.063 649.379 151.267C649.6 151.47 649.923 151.587 650.347 151.617C650.772 151.643 651.293 151.636 651.916 151.599V154.572C649.665 154.823 648.078 154.611 647.155 153.935C646.232 153.258 645.771 152.049 645.771 150.306V145.016H643.566V141.868H645.771V139.301L649.046 138.313V141.868H651.916V145.016Z" fill="white"/>
<path d="M593.27 159.186C594.98 159.186 596.419 159.763 597.588 160.912C598.756 162.064 599.342 163.479 599.342 165.159C599.342 166.835 598.756 168.248 597.588 169.397C596.419 170.549 594.98 171.124 593.27 171.124H590.152V176.968H586.646V159.186H593.27ZM593.27 167.846C594.013 167.846 594.631 167.587 595.125 167.07C595.616 166.553 595.863 165.914 595.863 165.15C595.863 164.375 595.616 163.735 595.125 163.23C594.631 162.72 594.013 162.463 593.27 162.463H590.152V167.846H593.27Z" fill="white"/>
<path d="M601.842 177.263V158.715H605.118V177.263H601.842Z" fill="white"/>
<path d="M617.871 164.264H621.147V176.968H617.871V175.472C616.893 176.709 615.514 177.328 613.738 177.328C612.04 177.328 610.584 176.679 609.373 175.38C608.167 174.082 607.565 172.494 607.565 170.616C607.565 168.739 608.167 167.151 609.373 165.852C610.584 164.554 612.04 163.904 613.738 163.904C615.514 163.904 616.893 164.522 617.871 165.759V164.264ZM611.828 173.201C612.485 173.866 613.322 174.198 614.337 174.198C615.357 174.198 616.201 173.866 616.866 173.201C617.535 172.531 617.871 171.668 617.871 170.616C617.871 169.563 617.535 168.705 616.866 168.04C616.201 167.37 615.357 167.033 614.337 167.033C613.322 167.033 612.485 167.37 611.828 168.04C611.168 168.705 610.84 169.563 610.84 170.616C610.84 171.668 611.168 172.531 611.828 173.201Z" fill="white"/>
<path d="M630.621 177.328C628.706 177.328 627.11 176.686 625.832 175.398C624.559 174.106 623.922 172.513 623.922 170.616C623.922 168.721 624.559 167.13 625.832 165.842C627.11 164.55 628.706 163.904 630.621 163.904C631.857 163.904 632.983 164.204 633.998 164.799C635.012 165.39 635.783 166.184 636.313 167.181L633.49 168.834C633.236 168.312 632.853 167.899 632.337 167.597C631.82 167.29 631.241 167.135 630.602 167.135C629.617 167.135 628.803 167.463 628.157 168.114C627.516 168.767 627.197 169.6 627.197 170.616C627.197 171.613 627.516 172.439 628.157 173.09C628.803 173.743 629.617 174.069 630.602 174.069C631.259 174.069 631.848 173.921 632.364 173.625C632.881 173.33 633.264 172.921 633.518 172.398L636.36 174.022C635.799 175.02 635.012 175.821 633.998 176.423C632.983 177.025 631.857 177.328 630.621 177.328Z" fill="white"/>
<path d="M641.517 171.964C641.96 173.559 643.153 174.355 645.097 174.355C646.352 174.355 647.303 173.93 647.948 173.081L650.587 174.604C649.332 176.421 647.487 177.328 645.051 177.328C642.952 177.328 641.268 176.695 639.995 175.426C638.726 174.152 638.094 172.55 638.094 170.616C638.094 168.702 638.717 167.105 639.967 165.824C641.222 164.545 642.83 163.904 644.793 163.904C646.657 163.904 648.193 164.55 649.406 165.842C650.617 167.13 651.224 168.721 651.224 170.616C651.224 171.04 651.18 171.49 651.095 171.964H641.517ZM641.471 169.425H647.948C647.757 168.557 647.369 167.915 646.786 167.495C646.2 167.07 645.536 166.858 644.793 166.858C643.912 166.858 643.183 167.084 642.606 167.532C642.034 167.982 641.656 168.612 641.471 169.425Z" fill="white"/>
<path d="M597.515 181.935V185.286H592.717V199.717H589.211V185.286H584.44V181.935H597.515Z" fill="white"/>
<path d="M607.646 197.716C606.34 199.015 604.748 199.664 602.866 199.664C600.988 199.664 599.401 199.015 598.105 197.716C596.813 196.418 596.167 194.83 596.167 192.952C596.167 191.075 596.813 189.487 598.105 188.188C599.401 186.89 600.988 186.24 602.866 186.24C604.748 186.24 606.34 186.89 607.646 188.188C608.949 189.487 609.602 191.075 609.602 192.952C609.602 194.83 608.949 196.418 607.646 197.716ZM600.421 195.472C601.072 196.132 601.888 196.46 602.866 196.46C603.849 196.46 604.67 196.132 605.33 195.472C605.994 194.807 606.326 193.967 606.326 192.952C606.326 191.936 605.994 191.1 605.33 190.44C604.67 189.776 603.849 189.443 602.866 189.443C601.888 189.443 601.072 189.776 600.421 190.44C599.768 191.1 599.443 191.936 599.443 192.952C599.443 193.967 599.768 194.807 600.421 195.472Z" fill="white"/>
<path d="M589.764 222.348L584.782 204.566H588.463L591.868 217.75L595.577 204.566H598.576L602.303 217.75L605.708 204.566H609.39L604.416 222.348H600.43L597.072 210.614L593.75 222.348H589.764Z" fill="white"/>
<path d="M620.519 220.522C619.214 221.822 617.622 222.471 615.74 222.471C613.862 222.471 612.275 221.822 610.979 220.522C609.687 219.225 609.041 217.637 609.041 215.758C609.041 213.882 609.687 212.294 610.979 210.994C612.275 209.697 613.862 209.046 615.74 209.046C617.622 209.046 619.214 209.697 620.519 210.994C621.823 212.294 622.475 213.882 622.475 215.758C622.475 217.637 621.823 219.225 620.519 220.522ZM613.295 218.279C613.945 218.939 614.762 219.267 615.74 219.267C616.723 219.267 617.544 218.939 618.203 218.279C618.868 217.614 619.2 216.774 619.2 215.758C619.2 214.743 618.868 213.907 618.203 213.247C617.544 212.582 616.723 212.25 615.74 212.25C614.762 212.25 613.945 212.582 613.295 213.247C612.642 213.907 612.317 214.743 612.317 215.758C612.317 216.774 612.642 217.614 613.295 218.279Z" fill="white"/>
<path d="M628.03 211.832C628.337 211.02 628.842 210.41 629.543 210.004C630.245 209.593 631.029 209.385 631.896 209.385V213.051C630.893 212.935 629.998 213.139 629.211 213.66C628.422 214.184 628.03 215.054 628.03 216.273V222.348H624.755V209.644H628.03V211.832Z" fill="white"/>
<path d="M645.912 222.288H642.101L637.478 216.518V222.288H634.203V204.506H637.478V215.17L641.852 209.584H645.764L640.652 215.862L645.912 222.288Z" fill="white"/>
<path d="M650.624 221.579L650.043 220.573H649.609V221.579H649.037V218.68H650.2C650.463 218.68 650.689 218.777 650.873 218.967C651.062 219.151 651.159 219.377 651.159 219.641C651.159 219.821 651.106 219.987 651.002 220.139C650.903 220.294 650.767 220.412 650.596 220.49L651.242 221.579H650.624ZM649.609 219.216V220.075H650.2C650.303 220.075 650.393 220.035 650.467 219.955C650.546 219.869 650.587 219.768 650.587 219.65C650.587 219.528 650.546 219.426 650.467 219.345C650.393 219.26 650.303 219.216 650.2 219.216H649.609Z" fill="white"/>
<path d="M649.951 217.333C648.447 217.333 647.238 218.542 647.238 220.047C647.238 221.543 648.447 222.761 649.951 222.761C651.455 222.761 652.663 221.543 652.663 220.047C652.663 218.542 651.455 217.333 649.951 217.333ZM649.951 218.062C651.039 218.062 651.934 218.948 651.934 220.047C651.934 221.136 651.039 222.032 649.951 222.032C648.862 222.032 647.967 221.136 647.967 220.047C647.967 218.948 648.862 218.062 649.951 218.062Z" fill="white"/>
<path d="M589.137 237.09C589.886 237.09 590.59 237.199 591.25 237.413C591.914 237.63 592.505 237.94 593.021 238.346C593.538 238.752 593.967 239.248 594.313 239.832C594.664 240.419 594.894 241.077 595.005 241.808L592.338 242.039C592.165 241.153 591.789 240.486 591.213 240.036C590.634 239.581 589.914 239.352 589.054 239.352C588.512 239.352 588.016 239.452 587.568 239.648C587.125 239.839 586.747 240.114 586.433 240.469C586.12 240.82 585.875 241.252 585.704 241.762C585.531 242.268 585.446 242.833 585.446 243.461C585.446 244.132 585.538 244.723 585.723 245.233C585.912 245.739 586.17 246.166 586.498 246.517C586.823 246.863 587.204 247.124 587.642 247.302C588.085 247.475 588.56 247.56 589.072 247.56C589.921 247.56 590.636 247.339 591.222 246.895C591.806 246.448 592.177 245.792 592.338 244.929L595.023 245.16C594.899 245.894 594.664 246.545 594.313 247.117C593.967 247.689 593.538 248.179 593.021 248.585C592.509 248.987 591.923 249.294 591.259 249.508C590.599 249.723 589.898 249.831 589.155 249.831C588.251 249.831 587.411 249.686 586.636 249.397C585.866 249.102 585.199 248.682 584.634 248.133C584.074 247.585 583.638 246.918 583.324 246.129C583.01 245.342 582.853 244.453 582.853 243.461C582.853 242.459 583.01 241.564 583.324 240.774C583.638 239.98 584.074 239.313 584.634 238.771C585.199 238.224 585.864 237.808 586.627 237.524C587.395 237.236 588.232 237.09 589.137 237.09Z" fill="white"/>
<path d="M598.917 246.138C598.936 246.669 599.097 247.089 599.406 247.403C599.72 247.717 600.149 247.874 600.698 247.874C601.115 247.874 601.459 247.791 601.731 247.625C602.001 247.459 602.179 247.228 602.266 246.932L604.702 247.052C604.622 247.459 604.465 247.833 604.232 248.17C604.003 248.502 603.715 248.795 603.364 249.047C603.018 249.294 602.622 249.487 602.174 249.628C601.731 249.762 601.261 249.831 600.762 249.831C600.117 249.831 599.519 249.73 598.972 249.527C598.423 249.319 597.958 249.024 597.57 248.64C597.187 248.253 596.89 247.786 596.675 247.237C596.458 246.683 596.352 246.064 596.352 245.381C596.352 244.687 596.458 244.066 596.675 243.516C596.89 242.969 597.187 242.505 597.57 242.122C597.958 241.734 598.414 241.439 598.945 241.236C599.473 241.033 600.057 240.931 600.698 240.931C601.311 240.931 601.872 241.028 602.377 241.217C602.88 241.409 603.311 241.688 603.669 242.058C604.024 242.422 604.299 242.868 604.49 243.396C604.686 243.927 604.785 244.52 604.785 245.178V246.138H598.917ZM600.679 242.815C600.163 242.815 599.748 242.967 599.434 243.267C599.12 243.562 598.947 243.985 598.917 244.532H602.349C602.331 244.003 602.186 243.586 601.916 243.276C601.644 242.969 601.233 242.815 600.679 242.815Z" fill="white"/>
<path d="M611.235 243.341C610.538 243.341 609.989 243.523 609.583 243.885C609.177 244.243 608.974 244.716 608.974 245.307V249.647H606.557V241.097H608.891V242.067C609.076 241.785 609.346 241.538 609.703 241.328C610.065 241.12 610.575 241.014 611.235 241.014V243.341Z" fill="white"/>
<path d="M615.818 246.291C615.818 246.766 615.948 247.101 616.206 247.297C616.464 247.489 616.764 247.583 617.11 247.583C617.281 247.583 617.426 247.579 617.544 247.565C617.659 247.546 617.761 247.525 617.848 247.5V249.651C617.675 249.674 617.491 249.697 617.295 249.716C617.103 249.739 616.843 249.753 616.51 249.753C616.049 249.753 615.625 249.693 615.237 249.577C614.854 249.462 614.529 249.289 614.259 249.06C613.987 248.827 613.775 248.53 613.622 248.165C613.475 247.802 613.401 247.371 613.401 246.872L613.419 243.115H611.869V241.037H613.438L613.456 238.203H615.865L615.855 241.037H617.848V243.115H615.837L615.818 246.291Z" fill="white"/>
<path d="M620.58 236.841C620.985 236.841 621.329 236.984 621.613 237.266C621.894 237.543 622.037 237.889 622.037 238.3C622.037 238.695 621.894 239.034 621.613 239.315C621.329 239.599 620.985 239.74 620.58 239.74C620.174 239.74 619.832 239.599 619.555 239.315C619.279 239.034 619.14 238.695 619.14 238.3C619.14 238.097 619.177 237.91 619.251 237.737C619.329 237.559 619.435 237.404 619.565 237.275C619.698 237.141 619.853 237.035 620.026 236.961C620.197 236.883 620.381 236.841 620.58 236.841ZM619.371 249.647V241.097H621.788V249.647H619.371Z" fill="white"/>
<path d="M628.159 236.693C628.344 236.693 628.496 236.698 628.621 236.703C628.75 236.71 628.874 236.721 628.999 236.74V238.826C628.925 238.815 628.842 238.805 628.75 238.798C628.662 238.794 628.558 238.789 628.436 238.789C628.016 238.789 627.673 238.916 627.403 239.168C627.13 239.415 626.997 239.74 626.997 240.146V241.097H628.98V243.175H626.997V249.647H624.598V243.175H623.048V241.097H624.598V240.22C624.598 239.68 624.683 239.193 624.856 238.761C625.027 238.332 625.267 237.963 625.576 237.654C625.883 237.347 626.254 237.109 626.692 236.943C627.128 236.776 627.617 236.693 628.159 236.693Z" fill="white"/>
<path d="M631.682 236.841C632.088 236.841 632.431 236.984 632.715 237.266C632.996 237.543 633.139 237.889 633.139 238.3C633.139 238.695 632.996 239.034 632.715 239.315C632.431 239.599 632.088 239.74 631.682 239.74C631.276 239.74 630.934 239.599 630.657 239.315C630.381 239.034 630.242 238.695 630.242 238.3C630.242 238.097 630.279 237.91 630.353 237.737C630.431 237.559 630.537 237.404 630.667 237.275C630.8 237.141 630.955 237.035 631.128 236.961C631.299 236.883 631.483 236.841 631.682 236.841ZM630.473 249.647V241.097H632.89V249.647H630.473Z" fill="white"/>
<path d="M638.941 240.931C639.458 240.931 639.942 241.005 640.399 241.153C640.86 241.3 641.268 241.52 641.626 241.808C641.981 242.092 642.276 242.441 642.512 242.852C642.752 243.258 642.911 243.719 642.991 244.236L640.629 244.44C640.574 243.996 640.392 243.646 640.085 243.387C639.783 243.129 639.402 242.999 638.941 242.999C638.373 242.999 637.91 243.207 637.548 243.618C637.183 244.031 637.003 244.62 637.003 245.381C637.003 246.138 637.183 246.725 637.548 247.135C637.91 247.542 638.373 247.745 638.941 247.745C639.414 247.745 639.799 247.622 640.094 247.375C640.394 247.124 640.576 246.782 640.639 246.351L642.991 246.572C642.899 247.078 642.735 247.532 642.502 247.939C642.274 248.34 641.981 248.682 641.626 248.964C641.268 249.24 640.862 249.457 640.408 249.61C639.958 249.758 639.469 249.831 638.941 249.831C638.313 249.831 637.732 249.73 637.197 249.527C636.662 249.319 636.196 249.026 635.804 248.65C635.416 248.269 635.112 247.805 634.89 247.255C634.669 246.702 634.558 246.078 634.558 245.381C634.558 244.675 634.669 244.047 634.89 243.498C635.112 242.944 635.412 242.478 635.794 242.094C636.182 241.714 636.646 241.425 637.188 241.227C637.728 241.03 638.313 240.931 638.941 240.931Z" fill="white"/>
<path d="M647.925 240.871C649.081 240.871 649.96 241.162 650.564 241.739C651.173 242.318 651.478 243.175 651.478 244.306V249.587H649.153V248.894C648.906 249.148 648.604 249.356 648.248 249.522C647.891 249.688 647.464 249.771 646.966 249.771C646.103 249.771 645.416 249.557 644.899 249.125C644.382 248.696 644.124 248.068 644.124 247.242C644.124 246.761 644.216 246.362 644.401 246.041C644.59 245.716 644.844 245.455 645.157 245.257C645.471 245.053 645.833 244.906 646.246 244.813C646.657 244.721 647.09 244.663 647.547 244.638L649.07 244.555V244.223C649.07 243.343 648.701 242.902 647.962 242.902C647.538 242.902 647.233 243.02 647.049 243.253C646.864 243.482 646.772 243.74 646.772 244.029L644.355 243.927C644.355 243.553 644.438 243.184 644.604 242.819C644.77 242.457 645.005 242.131 645.314 241.841C645.621 241.545 645.992 241.312 646.431 241.139C646.874 240.961 647.372 240.871 647.925 240.871ZM647.778 246.226C647.413 246.251 647.116 246.332 646.883 246.466C646.648 246.595 646.532 246.815 646.532 247.122C646.532 247.412 646.624 247.616 646.809 247.731C646.998 247.842 647.238 247.897 647.529 247.897C647.972 247.897 648.336 247.784 648.627 247.555C648.922 247.322 649.07 246.974 649.07 246.512V246.143L647.778 246.226Z" fill="white"/>
<path d="M659.703 249.707V248.83C659.482 249.12 659.152 249.37 658.716 249.577C658.285 249.785 657.766 249.891 657.157 249.891C656.548 249.891 655.989 249.785 655.487 249.577C654.988 249.37 654.557 249.067 654.195 248.673C653.83 248.28 653.549 247.812 653.346 247.269C653.143 246.722 653.042 246.113 653.042 245.441C653.042 244.765 653.143 244.156 653.346 243.613C653.549 243.066 653.83 242.598 654.195 242.21C654.557 241.817 654.988 241.515 655.487 241.305C655.989 241.097 656.548 240.991 657.157 240.991C657.715 240.991 658.202 241.081 658.614 241.259C659.032 241.432 659.353 241.644 659.574 241.896V236.855H661.973V249.707H659.703ZM657.553 243.059C656.949 243.059 656.455 243.267 656.068 243.678C655.68 244.091 655.487 244.68 655.487 245.441C655.487 246.198 655.68 246.785 656.068 247.195C656.455 247.602 656.949 247.805 657.553 247.805C658.149 247.805 658.635 247.616 659.011 247.232C659.385 246.852 659.574 246.314 659.574 245.617V245.238C659.574 244.543 659.385 244.008 659.011 243.632C658.635 243.251 658.149 243.059 657.553 243.059Z" fill="white"/>
<path d="M667.472 240.931C668.628 240.931 669.507 241.222 670.111 241.799C670.72 242.378 671.025 243.235 671.025 244.366V249.647H668.7V248.954C668.453 249.208 668.151 249.416 667.795 249.582C667.438 249.748 667.011 249.831 666.513 249.831C665.65 249.831 664.963 249.617 664.446 249.185C663.929 248.756 663.671 248.128 663.671 247.302C663.671 246.822 663.763 246.422 663.948 246.101C664.137 245.776 664.391 245.515 664.704 245.317C665.018 245.114 665.38 244.966 665.793 244.873C666.204 244.781 666.637 244.723 667.094 244.698L668.616 244.615V244.283C668.616 243.403 668.247 242.962 667.509 242.962C667.085 242.962 666.78 243.08 666.596 243.313C666.411 243.542 666.319 243.8 666.319 244.089L663.902 243.987C663.902 243.613 663.985 243.244 664.151 242.879C664.317 242.517 664.552 242.191 664.861 241.901C665.168 241.605 665.539 241.372 665.978 241.199C666.42 241.021 666.919 240.931 667.472 240.931ZM667.325 246.286C666.96 246.311 666.663 246.392 666.43 246.526C666.194 246.655 666.079 246.875 666.079 247.182C666.079 247.472 666.171 247.676 666.356 247.791C666.545 247.902 666.785 247.957 667.076 247.957C667.518 247.957 667.883 247.844 668.174 247.616C668.469 247.382 668.616 247.034 668.616 246.572V246.203L667.325 246.286Z" fill="white"/>
<path d="M614.527 280.243C614.826 280.243 615.103 280.28 615.357 280.354C615.608 280.428 615.828 280.543 616.012 280.696C616.197 280.85 616.337 281.044 616.437 281.277C616.54 281.506 616.593 281.776 616.593 282.09C616.593 282.404 616.531 282.669 616.409 282.884C616.291 283.101 616.137 283.269 615.948 283.392C616.199 283.491 616.413 283.669 616.593 283.927C616.778 284.186 616.87 284.525 616.87 284.943C616.87 285.264 616.815 285.543 616.704 285.783C616.598 286.018 616.45 286.217 616.261 286.383C616.077 286.545 615.851 286.667 615.588 286.752C615.322 286.833 615.036 286.872 614.73 286.872H611.759V280.243H614.527ZM613.124 282.902H614.444C614.67 282.902 614.852 282.847 614.988 282.736C615.129 282.621 615.2 282.436 615.2 282.182C615.2 281.931 615.122 281.746 614.969 281.628C614.822 281.506 614.621 281.444 614.37 281.444H613.124V282.902ZM613.124 285.654H614.563C614.833 285.654 615.053 285.596 615.219 285.478C615.385 285.356 615.468 285.153 615.468 284.869C615.468 284.587 615.385 284.384 615.219 284.26C615.053 284.13 614.84 284.066 614.582 284.066H613.124V285.654Z" fill="white"/>
<path d="M620.441 284.49H619.334V286.872H617.959V280.243H620.792C621.105 280.243 621.394 280.294 621.659 280.391C621.922 280.483 622.148 280.62 622.332 280.797C622.522 280.977 622.669 281.199 622.775 281.462C622.879 281.728 622.932 282.03 622.932 282.367C622.932 282.829 622.835 283.223 622.646 283.549C622.455 283.87 622.194 284.11 621.862 284.269L623.274 286.872H621.733L620.441 284.49ZM620.626 283.272C620.888 283.272 621.108 283.196 621.281 283.041C621.451 282.889 621.539 282.662 621.539 282.367C621.539 282.067 621.451 281.838 621.281 281.684C621.108 281.524 620.888 281.444 620.626 281.444H619.325V283.272H620.626Z" fill="white"/>
<path d="M628.793 286.872L628.249 285.598H625.49L624.946 286.872H623.451L626.293 280.243H627.446L630.297 286.872H628.793ZM627.769 284.481L626.874 282.358L625.979 284.481H627.769Z" fill="white"/>
<path d="M632.779 280.142C633.135 280.142 633.462 280.188 633.758 280.28C634.053 280.373 634.307 280.509 634.523 280.687C634.745 280.867 634.913 281.081 635.031 281.333C635.153 281.58 635.22 281.864 635.234 282.182L633.831 282.256C633.824 281.975 633.732 281.748 633.555 281.582C633.375 281.416 633.125 281.333 632.807 281.333C632.487 281.333 632.24 281.407 632.069 281.554C631.903 281.702 631.82 281.894 631.82 282.127C631.82 282.256 631.843 282.365 631.894 282.45C631.949 282.531 632.025 282.605 632.124 282.672C632.228 282.734 632.36 282.789 632.521 282.838C632.687 282.889 632.883 282.939 633.112 282.995C633.448 283.082 633.758 283.177 634.034 283.281C634.311 283.387 634.546 283.512 634.745 283.659C634.948 283.807 635.1 283.987 635.206 284.195C635.31 284.398 635.363 284.647 635.363 284.943C635.363 285.294 635.298 285.598 635.169 285.857C635.04 286.111 634.865 286.318 634.643 286.485C634.422 286.651 634.163 286.775 633.868 286.854C633.573 286.932 633.259 286.974 632.927 286.974C632.544 286.974 632.191 286.928 631.866 286.835C631.545 286.743 631.266 286.609 631.026 286.429C630.791 286.245 630.607 286.021 630.473 285.755C630.344 285.492 630.274 285.187 630.27 284.841L631.663 284.767C631.668 284.922 631.702 285.063 631.765 285.192C631.831 285.317 631.921 285.423 632.032 285.515C632.143 285.603 632.274 285.67 632.429 285.718C632.581 285.762 632.747 285.783 632.927 285.783C633.234 285.783 633.483 285.725 633.674 285.608C633.871 285.492 633.97 285.294 633.97 285.017C633.97 284.765 633.852 284.58 633.619 284.463C633.391 284.34 633.056 284.22 632.613 284.103C632.311 284.029 632.027 283.95 631.765 283.863C631.499 283.77 631.266 283.655 631.063 283.512C630.865 283.371 630.708 283.193 630.593 282.976C630.482 282.762 630.427 282.494 630.427 282.173C630.427 281.903 630.473 281.644 630.565 281.397C630.662 281.153 630.81 280.936 631.008 280.751C631.204 280.567 631.451 280.419 631.746 280.308C632.041 280.197 632.385 280.142 632.779 280.142Z" fill="white"/>
<path d="M636.443 286.872V280.243H637.817V286.872H636.443Z" fill="white"/>
<path d="M643.303 285.654V286.872H639.04V280.243H640.415V285.654H643.303Z" fill="white"/>
<path d="M672.483 281.278V283.549H671.541V281.278H670.508V280.364H673.525V281.278H672.483ZM676.782 283.549V282.229L676.063 283.512H675.638L674.918 282.229V283.549H673.977V280.364H674.78L675.85 282.284L676.921 280.364H677.733V283.549H676.782Z" fill="#002171"/>
</g>
<g clip-path="url(#clip5_224_5384)">
<g opacity="0.8">
<path d="M1899.29 370.899C2674.64 839.807 1184.93 1214.37 1247.5 688.667C1278.83 425.411 655.065 461.709 727.61 207.825C800.156 -46.0594 1047.36 68.9417 1342.19 -0.591233C1710.39 -87.423 1698.94 249.724 1899.29 370.89L1899.29 370.899Z" stroke="#12274B" stroke-width="1.37" stroke-miterlimit="10"/>
<g style="mix-blend-mode:hard-light" opacity="0.94">
<path d="M1908.94 360.342C2632.95 829.022 1227.59 1212.59 1244.69 699.45C1253.18 444.507 653.261 432.212 740.232 191.314C827.007 -49.5429 1072.37 43.4525 1356.1 -5.63577C1709.89 -68.1483 1717.81 236.612 1908.93 360.341L1908.94 360.342Z" stroke="#12274B" stroke-width="1.37" stroke-miterlimit="10"/>
</g>
<g style="mix-blend-mode:hard-light" opacity="0.88">
<path d="M1918.59 349.786C2591.29 817.217 1270.61 1211.74 1241.87 710.241C1227.77 464.025 651.456 402.714 752.861 174.811C853.867 -53.0259 1097.51 18.9863 1370.03 -10.6793C1709.55 -47.6301 1736.56 223.297 1918.59 349.786Z" stroke="#12274B" stroke-width="1.37" stroke-miterlimit="10"/>
</g>
<g style="mix-blend-mode:hard-light" opacity="0.81">
<path d="M1928.24 339.237C2549.74 804.249 1314.26 1211.77 1239.06 721.024C1202.73 483.928 649.644 373.208 765.482 158.308C880.71 -56.5022 1122.47 -6.0229 1383.95 -15.7154C1708.99 -27.7667 1755.2 209.762 1928.24 339.237Z" stroke="#12274B" stroke-width="1.37" stroke-miterlimit="10"/>
</g>
<g style="mix-blend-mode:hard-light" opacity="0.75">
<path d="M1937.89 328.68C2508.4 790.003 1358.82 1212.47 1236.25 731.807C1178.18 504.099 647.84 343.711 778.103 141.805C907.562 -59.9858 1147.34 -31.0724 1397.87 -20.7595C1708.34 -7.97825 1773.75 195.951 1937.89 328.68L1937.89 328.68Z" stroke="#12274B" stroke-width="1.37" stroke-miterlimit="10"/>
</g>
<g style="mix-blend-mode:hard-light" opacity="0.69">
<path d="M1947.55 318.124C2467.45 774.357 1404.45 1213.53 1233.43 742.59C1154.2 524.421 646.027 314.213 790.725 125.294C934.414 -63.4694 1172.14 -56.2121 1411.79 -25.8119C1707.6 11.7103 1792.23 181.834 1947.54 318.115L1947.55 318.124Z" stroke="#12274B" stroke-width="1.37" stroke-miterlimit="10"/>
</g>
<g style="mix-blend-mode:hard-light" opacity="0.62">
<path d="M1957.19 307.566C2427.03 757.209 1451.26 1214.62 1230.62 753.381C1130.81 544.742 644.223 284.715 803.346 108.791C961.265 -66.945 1196.88 -81.433 1425.7 -30.8481C1706.78 31.2912 1810.71 167.39 1957.19 307.574L1957.19 307.566Z" stroke="#12274B" stroke-width="1.37" stroke-miterlimit="10"/>
</g>
<g style="mix-blend-mode:hard-light" opacity="0.56">
<path d="M1966.84 297.018C2387.35 738.493 1499.19 1215.37 1227.8 764.164C1107.95 564.885 642.418 255.218 815.976 92.2886C988.125 -70.4281 1221.6 -106.781 1439.63 -35.8915C1705.93 50.7021 1829.25 152.566 1966.85 297.018L1966.84 297.018Z" stroke="#12274B" stroke-width="1.37" stroke-miterlimit="10"/>
</g>
<g style="mix-blend-mode:hard-light" opacity="0.5">
<path d="M1976.49 286.461C2348.62 718.176 1548.1 1215.49 1224.99 774.948C1085.5 584.753 640.615 225.713 828.597 75.7861C1014.97 -73.9038 1246.32 -132.271 1453.55 -40.9353C1705.09 69.9382 1847.94 137.319 1976.49 286.461Z" stroke="#12274B" stroke-width="1.37" stroke-miterlimit="10"/>
</g>
<g style="mix-blend-mode:hard-light" opacity="0.44">
<path d="M1986.14 275.905C2311.09 696.297 1597.72 1214.77 1222.18 785.731C1063.35 604.279 638.81 196.215 841.218 59.2745C1041.82 -77.3877 1271.08 -157.917 1467.47 -45.9797C1704.3 89.0026 1866.89 121.626 1986.14 275.905Z" stroke="#12274B" stroke-width="1.37" stroke-miterlimit="10"/>
</g>
<g style="mix-blend-mode:hard-light" opacity="0.38">
<path d="M1995.79 265.356C2275 672.986 1647.84 1213.15 1219.36 796.522C1041.36 623.442 636.997 166.717 853.839 42.7716C1068.67 -80.8714 1295.93 -183.664 1481.39 -51.0241C1703.62 107.925 1886.27 105.468 1995.79 265.348L1995.79 265.356Z" stroke="#12274B" stroke-width="1.37" stroke-miterlimit="10"/>
</g>
<g style="mix-blend-mode:hard-light" opacity="0.31">
<path d="M2005.44 254.8C2240.59 648.44 1698.18 1210.63 1216.56 807.306C1019.46 642.244 635.201 137.221 866.469 26.2697C1095.53 -84.3457 1320.91 -209.508 1495.31 -56.0588C1703.09 126.754 1906.31 88.8576 2005.45 254.809L2005.44 254.8Z" stroke="#12274B" stroke-width="1.37" stroke-miterlimit="10"/>
</g>
<g style="mix-blend-mode:hard-light" opacity="0.25">
<path d="M2015.09 244.243C2208.09 622.996 1748.57 1207.29 1213.75 818.089C997.512 660.733 633.389 107.714 879.09 9.75789C1122.37 -87.8307 1346.02 -235.4 1509.23 -61.1117C1702.72 145.511 1927.22 71.7939 2015.09 244.243Z" stroke="#12274B" stroke-width="1.37" stroke-miterlimit="10"/>
</g>
<g style="mix-blend-mode:hard-light" opacity="0.19">
<path d="M2024.74 233.694C2177.65 597.162 1798.87 1203.24 1210.93 828.88C975.49 678.963 631.584 78.2248 891.712 -6.74509C1149.23 -91.3144 1371.26 -261.297 1523.15 -66.1559C1702.5 164.273 1949.32 54.4073 2024.74 233.686L2024.74 233.694Z" stroke="#12274B" stroke-width="1.37" stroke-miterlimit="10"/>
</g>
<g style="mix-blend-mode:hard-light" opacity="0.12">
<path d="M2034.39 223.138C2149.39 571.536 1848.97 1198.63 1208.12 839.663C953.361 696.967 629.78 48.7193 904.333 -23.248C1176.08 -94.7897 1396.62 -287.167 1537.07 -71.1917C1702.42 183.082 1972.9 36.8564 2034.39 223.138Z" stroke="#12274B" stroke-width="1.37" stroke-miterlimit="10"/>
</g>
<g style="mix-blend-mode:hard-light" opacity="0.06">
<path d="M2044.04 212.581C2123.27 546.914 1898.82 1193.54 1205.3 850.446C931.105 714.8 627.967 19.2213 916.954 -39.7509C1202.93 -98.2733 1422.08 -312.978 1550.98 -76.2358C1702.45 201.949 1998.26 19.4103 2044.04 212.581Z" stroke="#12274B" stroke-width="1.37" stroke-miterlimit="10"/>
</g>
<path opacity="0.03" d="M1663.2 799.996C1482.71 1668.28 449.921 527.405 1006.15 326.959C1282.81 227.258 1030.06 -334.268 1326.3 -355.205C1622.42 -376.312 1631.63 -109.522 1809.83 132.924C2033.44 434.676 1710.94 570.313 1663.2 799.996Z" stroke="#12274B" stroke-width="1.37" stroke-miterlimit="10"/>
<path opacity="0.05" d="M1678.76 804.498C1477.18 1623.76 470.354 566.721 993.366 328.903C1250.88 211.812 1060.81 -348.381 1349.55 -350.453C1638.03 -352.865 1668.99 -96.4411 1821.39 143.71C2011.4 443.125 1733.56 581.818 1678.76 804.498Z" stroke="#12274B" stroke-width="1.37" stroke-miterlimit="10"/>
<path opacity="0.07" d="M1694.33 808.993C1473.05 1578.84 490.214 606.849 980.58 330.839C1218.73 196.79 1091.57 -362.503 1372.79 -345.709C1653.65 -329.434 1706.8 -83.8158 1832.95 154.495C1989.9 451.018 1756.39 593.082 1694.32 809L1694.33 808.993Z" stroke="#12274B" stroke-width="1.37" stroke-miterlimit="10"/>
<path opacity="0.1" d="M1709.9 813.495C1470.49 1533.65 509.717 647.992 967.802 332.784C1186.48 182.312 1122.34 -376.615 1396.05 -340.957C1669.28 -305.994 1744.62 -71.2987 1844.52 165.282C1968.44 458.772 1779.5 604.136 1709.9 813.503L1709.9 813.495Z" stroke="#12274B" stroke-width="1.37" stroke-miterlimit="10"/>
<path opacity="0.12" d="M1725.46 817.989C1469.69 1488.28 529.15 690.243 955.017 334.711C1154.25 168.388 1153.09 -390.745 1419.3 -336.222C1684.89 -282.572 1782.47 -58.929 1856.08 176.051C1947.02 466.354 1802.93 614.974 1725.46 817.989Z" stroke="#12274B" stroke-width="1.37" stroke-miterlimit="10"/>
<path opacity="0.15" d="M1741.03 822.492C1470.79 1442.92 548.867 733.65 942.231 336.655C1122.19 155.041 1183.85 -404.858 1442.55 -331.478C1700.51 -259.132 1820.4 -46.6786 1867.63 186.836C1925.68 473.793 1826.74 625.695 1741.02 822.483L1741.03 822.492Z" stroke="#12274B" stroke-width="1.37" stroke-miterlimit="10"/>
<path opacity="0.18" d="M1756.6 826.986C1473.91 1397.76 569.206 778.082 929.445 338.599C1090.43 142.197 1214.61 -418.971 1465.8 -326.725C1716.14 -235.692 1858.46 -34.5256 1879.2 197.623C1904.53 481.097 1851.02 636.348 1756.6 826.986Z" stroke="#12274B" stroke-width="1.37" stroke-miterlimit="10"/>
<path opacity="0.2" d="M1772.16 831.488C1479.1 1353.05 590.453 823.346 916.659 340.535C1059.09 129.715 1245.37 -433.093 1489.05 -321.982C1731.75 -212.262 1896.68 -22.4506 1890.76 208.4C1883.59 488.309 1875.81 647.02 1772.16 831.48L1772.16 831.488Z" stroke="#12274B" stroke-width="1.37" stroke-miterlimit="10"/>
<path opacity="0.23" d="M1787.73 835.983C1486.37 1309.06 612.798 869.166 903.874 342.471C1028.22 117.468 1276.12 -447.214 1512.3 -317.238C1747.36 -188.831 1935.1 -10.3749 1902.32 219.186C1862.86 495.533 1901.19 657.853 1787.72 835.982L1787.73 835.983Z" stroke="#12274B" stroke-width="1.37" stroke-miterlimit="10"/>
<path opacity="0.25" d="M1803.29 840.484C1495.61 1266.08 636.302 915.229 891.088 344.415C997.812 105.31 1306.88 -461.319 1535.54 -312.486C1762.98 -165.392 1973.69 1.76572 1913.88 229.971C1842.36 502.818 1927.25 669.021 1803.29 840.484Z" stroke="#12274B" stroke-width="1.37" stroke-miterlimit="10"/>
<path opacity="0.28" d="M1818.85 844.978C1506.62 1224.4 660.914 961.264 878.302 346.35C967.829 93.1062 1337.64 -475.44 1558.79 -307.742C1778.6 -141.953 2012.44 14.0204 1925.44 240.749C1822.03 510.244 1954.03 680.712 1818.85 844.978Z" stroke="#12274B" stroke-width="1.37" stroke-miterlimit="10"/>
<path opacity="0.3" d="M1834.42 849.481C1519.07 1184.37 686.494 1007.06 865.516 348.294C938.217 80.7752 1368.39 -489.553 1582.04 -302.999C1794.22 -118.522 2051.29 26.4095 1937 251.534C1801.82 517.838 1981.57 693.222 1834.42 849.481Z" stroke="#12274B" stroke-width="1.37" stroke-miterlimit="10"/>
<path opacity="0.33" d="M1849.99 853.975C1532.49 1146.25 712.886 1052.45 852.739 350.231C908.899 68.2439 1399.16 -503.674 1605.29 -298.254C1809.84 -95.0908 2090.17 38.953 1948.57 262.312C1781.64 525.604 2009.85 706.819 1849.99 853.975Z" stroke="#12274B" stroke-width="1.37" stroke-miterlimit="10"/>
<path opacity="0.35" d="M1865.55 858.477C1546.31 1110.29 739.898 1097.37 839.953 352.175C879.784 55.4956 1429.92 -517.787 1628.54 -293.502C1825.46 -71.6517 2129.07 51.6305 1960.13 273.098C1761.46 533.545 2038.77 721.845 1865.55 858.477Z" stroke="#12274B" stroke-width="1.37" stroke-miterlimit="10"/>
<path opacity="0.38" d="M1881.12 862.972C1559.8 1076.69 767.356 1141.78 827.167 354.111C850.832 42.5022 1460.68 -531.908 1651.79 -288.759C1841.08 -48.2123 2167.92 64.4225 1971.69 283.884C1741.24 541.608 2068.17 738.57 1881.12 862.98L1881.12 862.972Z" stroke="#12274B" stroke-width="1.37" stroke-miterlimit="10"/>
<path opacity="0.4" d="M1896.69 867.474C1572.17 1045.46 795.108 1185.7 814.381 356.055C821.974 29.3074 1491.43 -546.022 1675.04 -284.006C1856.69 -24.773 2206.73 77.3021 1983.24 294.669C1720.96 549.783 2097.73 757.21 1896.68 867.482L1896.69 867.474Z" stroke="#12274B" stroke-width="1.37" stroke-miterlimit="10"/>
</g>
</g>
</g>
<defs>
<clipPath id="clip0_224_5384">
<rect width="847.425" height="407" fill="white"/>
</clipPath>
<clipPath id="clip1_224_5384">
<rect width="1495" height="1433" fill="white" transform="translate(-389 335)"/>
</clipPath>
<clipPath id="clip2_224_5384">
<rect width="1495" height="1433" fill="white" transform="translate(-99 -1317)"/>
</clipPath>
<clipPath id="clip3_224_5384">
<rect width="498.007" height="199.203" fill="white" transform="translate(43 102)"/>
</clipPath>
<clipPath id="clip4_224_5384">
<rect width="100.978" height="171.357" fill="white" transform="translate(577.022 129.401)"/>
</clipPath>
<clipPath id="clip5_224_5384">
<rect width="1495" height="1433" fill="white" transform="translate(649 1071.38) rotate(-85.0284)"/>
</clipPath>
</defs>
</svg>
